<svg width="180" height="180" viewBox="0 0 180 180" fill="none" xmlns="http://www.w3.org/2000/svg">
<circle cx="90" cy="90" r="89" fill="white" stroke="#0084D0" stroke-width="2"/>
<g clip-path="url(#clip0)">
<path d="M119.684 99.3454C118.735 99.3454 117.966 100.115 117.966 101.064V116.322C117.962 119.168 115.657 121.475 112.81 121.477H64.5923C61.7461 121.475 59.4403 119.168 59.4369 116.322V71.5406C59.4403 68.6951 61.7461 66.3886 64.5923 66.3852H79.8503C80.7995 66.3852 81.5688 65.6159 81.5688 64.6668C81.5688 63.7182 80.7995 62.9483 79.8503 62.9483H64.5923C59.8491 62.9537 56.0054 66.7974 56 71.5406V116.323C56.0054 121.066 59.8491 124.909 64.5923 124.915H112.81C117.554 124.909 121.397 121.066 121.403 116.323V101.064C121.403 100.115 120.633 99.3454 119.684 99.3454V99.3454Z" fill="#0084D0"/>
<path d="M120.722 58.5266C117.702 55.5066 112.806 55.5066 109.786 58.5266L79.1274 89.185C78.9173 89.3951 78.7656 89.6555 78.6864 89.9415L74.6547 104.497C74.4889 105.093 74.6574 105.733 75.0951 106.171C75.5334 106.609 76.1725 106.777 76.7693 106.612L91.3245 102.58C91.6104 102.5 91.8709 102.349 92.081 102.139L122.739 71.4795C125.754 68.4574 125.754 63.5652 122.739 60.5431L120.722 58.5266ZM82.8718 90.302L107.963 65.2098L116.055 73.302L90.9633 98.3942L82.8718 90.302ZM81.2554 93.5456L87.7204 100.011L78.7777 102.489L81.2554 93.5456ZM120.309 69.0495L118.486 70.872L110.393 62.7791L112.216 60.9566C113.894 59.2791 116.614 59.2791 118.291 60.9566L120.309 62.9731C121.983 64.6527 121.983 67.3706 120.309 69.0495V69.0495Z" fill="#0084D0"/>
</g>
<defs>
<clipPath id="clip0">
<rect width="69" height="69" fill="white" transform="translate(56 56)"/>
</clipPath>
</defs>
</svg>
