<svg width="180" height="180" viewBox="0 0 180 180" fill="none" xmlns="http://www.w3.org/2000/svg">
<circle cx="90" cy="90" r="89" fill="white" stroke="#0084D0" stroke-width="2"/>
<g clip-path="url(#clip0)">
<path d="M54.9996 51H124.999C127.76 51 129.999 53.2386 129.999 56V112.666C129.999 115.428 127.76 117.666 124.999 117.666H84.9994V114.333H124.999C125.92 114.333 126.666 113.587 126.666 112.666V56C126.666 55.0795 125.92 54.3333 124.999 54.3333H54.9996C54.0791 54.3333 53.3329 55.0795 53.3329 56V112.666C53.3329 113.587 54.0791 114.333 54.9996 114.333H58.3329V117.666H54.9996C52.2382 117.666 49.9996 115.428 49.9996 112.666V56C49.9996 53.2386 52.2382 51 54.9996 51Z" fill="#0084D0"/>
<path d="M60.0003 67.6666C63.6821 67.6666 66.6669 64.6818 66.6669 60.9999C66.6669 60.0795 67.4132 59.3332 68.3336 59.3332H111.666C112.587 59.3332 113.333 60.0795 113.333 60.9999C113.333 64.6818 116.318 67.6666 120 67.6666C120.92 67.6666 121.667 68.4128 121.667 69.3333V99.3331C121.667 100.254 120.92 101 120 101C116.318 101 113.333 103.985 113.333 107.666C113.333 108.587 112.587 109.333 111.666 109.333H89.9999V106H110.138C110.855 101.806 114.14 98.5215 118.333 97.8046V70.8616C114.14 70.1447 110.855 66.86 110.138 62.6666H69.8618C69.1449 66.86 65.8602 70.1447 61.6668 70.8616V84.3332H58.3336V69.3333C58.3336 68.4127 59.0798 67.6666 60.0003 67.6666Z" fill="#0084D0"/>
<path d="M71.6666 85.9997C79.9508 85.9997 86.6665 92.7155 86.6665 101C86.6665 109.284 79.9508 115.999 71.6666 115.999C63.3865 115.989 56.6769 109.28 56.6667 101C56.6667 92.7155 63.3825 85.9997 71.6666 85.9997ZM71.6666 112.666C78.1099 112.666 83.3332 107.443 83.3332 101C83.3332 94.5564 78.11 89.333 71.6666 89.333C65.2264 89.3403 60.0073 94.5593 60 101C60.0002 107.443 65.2234 112.666 71.6666 112.666Z" fill="#0084D0"/>
<path d="M65.0001 111V125.864L70.625 121.364C71.2339 120.877 72.0994 120.877 72.7083 121.364L78.3332 125.864V111H81.6665V129.333C81.6667 129.712 81.5378 130.079 81.3009 130.375C80.7256 131.094 79.6767 131.21 78.9582 130.634L71.6666 124.801L64.3749 130.634C64.0793 130.871 63.7118 131 63.3332 130.999C62.4127 130.999 61.6665 130.253 61.6665 129.333V111H65.0001Z" fill="#0084D0"/>
<path d="M73.3333 67.6666H106.666C107.587 67.6666 108.333 68.4128 108.333 69.3333V75.9998C108.333 76.9203 107.587 77.6665 106.666 77.6665H73.3333C72.4128 77.6665 71.6666 76.9203 71.6666 75.9998V69.3331C71.6666 68.4127 72.4128 67.6666 73.3333 67.6666ZM75 74.3331H105V70.9998H75V74.3331Z" fill="#0084D0"/>
<path d="M106.667 82.6665H110V85.9998H106.667V82.6665Z" fill="#0084D0"/>
<path d="M99.9998 82.6665H103.333V85.9998H99.9998V82.6665Z" fill="#0084D0"/>
<path d="M89.9999 89.333H110V92.6662H89.9999V89.333Z" fill="#0084D0"/>
<path d="M71.6668 92.6664C76.2691 92.6664 80 96.3973 80 101C80 105.602 76.2691 109.333 71.6668 109.333C67.0667 109.327 63.339 105.6 63.3336 101C63.3336 96.3973 67.0645 92.6664 71.6668 92.6664ZM71.6668 106C74.4282 106 76.6667 103.761 76.6667 101C76.6667 98.2382 74.4282 95.9996 71.6668 95.9996C68.9054 95.9996 66.6668 98.2382 66.6668 101C66.6668 103.761 68.9054 106 71.6668 106Z" fill="#0084D0"/>
<path d="M118.333 106H121.666V109.333H118.333V106Z" fill="#0084D0"/>
<path d="M58.3335 59.3332H61.6667V62.6665H58.3335V59.3332Z" fill="#0084D0"/>
<path d="M118.333 59.3332H121.666V62.6665H118.333V59.3332Z" fill="#0084D0"/>
</g>
<defs>
<clipPath id="clip0">
<rect width="80" height="80" fill="white" transform="matrix(-1 0 0 1 130 51)"/>
</clipPath>
</defs>
</svg>
