<svg width="180" height="180" viewBox="0 0 180 180" fill="none" xmlns="http://www.w3.org/2000/svg">
<circle cx="90" cy="90" r="89" fill="white" stroke="#0084D0" stroke-width="2"/>
<path d="M115.885 57.7656H96.3487V53.6719C96.3487 51.6472 94.7015 50 92.6768 50H87.3227C85.298 50 83.6509 51.6472 83.6509 53.6719V57.7656H72.7341C72.0868 57.7656 71.5623 58.2902 71.5623 58.9375C71.5623 59.5848 72.0868 60.1094 72.7341 60.1094H83.6509V62.9427H79.6455C78.9982 62.9427 78.4737 63.4672 78.4737 64.1145C78.4737 64.7619 78.9982 65.2864 79.6455 65.2864H83.814C84.2773 66.7841 85.6749 67.875 87.3226 67.875H92.6766C94.3244 67.875 95.7219 66.7839 96.1852 65.2864H100.354C101.001 65.2864 101.526 64.7619 101.526 64.1145C101.526 63.4672 101.001 62.9427 100.354 62.9427H96.3484V60.1094H115.885C118.093 60.1094 119.89 61.9061 119.89 64.1145V117.302H117.057V114.547C117.057 113.211 115.97 112.125 114.635 112.125H91.2498C89.9143 112.125 88.8279 113.211 88.8279 114.547V117.302H60.1091V64.1147C60.1091 61.9061 61.9058 60.1094 64.1143 60.1094H67.9943C68.6416 60.1094 69.1662 59.5848 69.1662 58.9375C69.1662 58.2902 68.6416 57.7656 67.9943 57.7656H64.1143C60.6135 57.7656 57.7654 60.6137 57.7654 64.1145V123.651C57.7654 127.152 60.6135 130 64.1143 130H103.187C103.834 130 104.359 129.475 104.359 128.828C104.359 128.181 103.834 127.656 103.187 127.656H64.1143C61.9058 127.656 60.1091 125.86 60.1091 123.651V119.646H88.8279V122.401C88.8279 123.737 89.9143 124.823 91.2498 124.823H114.635C115.971 124.823 117.057 123.737 117.057 122.401V119.646H119.89V123.651C119.89 125.86 118.094 127.656 115.885 127.656H107.875C107.227 127.656 106.703 128.181 106.703 128.828C106.703 129.475 107.227 130 107.875 130H115.885C119.386 130 122.234 127.152 122.234 123.651V64.1145C122.234 60.6137 119.386 57.7656 115.885 57.7656V57.7656ZM85.9946 53.6719C85.9946 52.9395 86.5904 52.3438 87.3227 52.3438H92.6768C93.409 52.3438 94.0049 52.9395 94.0049 53.6719V60.3542H85.9946V53.6719ZM94.0049 64.2031C94.0049 64.9355 93.409 65.5313 92.6768 65.5313H87.3227C86.5904 65.5313 85.9946 64.9355 85.9946 64.2031V62.6978H94.0049V64.2031ZM114.713 122.401C114.713 122.444 114.678 122.479 114.635 122.479H91.2498C91.2068 122.479 91.1716 122.444 91.1716 122.401V114.547C91.1716 114.504 91.2068 114.469 91.2498 114.469H114.635C114.678 114.469 114.713 114.504 114.713 114.547V122.401Z" fill="#0084D0"/>
<path d="M91.25 80.8177H104.281C105.617 80.8177 106.703 79.7313 106.703 78.3958V75.7188C106.703 74.3833 105.617 73.2969 104.281 73.2969H91.25C89.9145 73.2969 88.8281 74.3833 88.8281 75.7188V78.3959C88.8281 79.7312 89.9145 80.8177 91.25 80.8177V80.8177ZM91.1719 75.7188C91.1719 75.6758 91.207 75.6406 91.25 75.6406H104.281C104.324 75.6406 104.359 75.6758 104.359 75.7188V78.3959C104.359 78.4389 104.324 78.4741 104.281 78.4741H91.25C91.207 78.4741 91.1719 78.4389 91.1719 78.3959V75.7188Z" fill="#0084D0"/>
<path d="M88.8281 88.75C88.8281 90.0855 89.9145 91.1719 91.25 91.1719H114.635C115.971 91.1719 117.057 90.0855 117.057 88.75V86.073C117.057 84.7375 115.971 83.6511 114.635 83.6511H91.25C89.9145 83.6511 88.8281 84.7375 88.8281 86.073V88.75ZM91.1719 86.073C91.1719 86.03 91.207 85.9949 91.25 85.9949H114.635C114.678 85.9949 114.714 86.03 114.714 86.073V88.75C114.714 88.793 114.678 88.8282 114.635 88.8282H91.25C91.207 88.8282 91.1719 88.793 91.1719 88.75V86.073Z" fill="#0084D0"/>
<path d="M88.8281 99.1042C88.8281 100.44 89.9145 101.526 91.25 101.526H99.1042C100.44 101.526 101.526 100.44 101.526 99.1042V96.427C101.526 95.0915 100.44 94.0051 99.1042 94.0051H91.25C89.9145 94.0051 88.8281 95.0915 88.8281 96.427V99.1042ZM91.1719 96.427C91.1719 96.384 91.207 96.3489 91.25 96.3489H99.1042C99.1472 96.3489 99.1823 96.384 99.1823 96.427V99.1042C99.1823 99.1472 99.1472 99.1823 99.1042 99.1823H91.25C91.207 99.1823 91.1719 99.1472 91.1719 99.1042V96.427Z" fill="#0084D0"/>
<path d="M102.942 117.302H95.1768C94.5294 117.302 94.0049 117.827 94.0049 118.474C94.0049 119.121 94.5294 119.646 95.1768 119.646H102.942C103.59 119.646 104.114 119.121 104.114 118.474C104.114 117.827 103.59 117.302 102.942 117.302Z" fill="#0084D0"/>
<path d="M110.708 117.302H108.12C107.472 117.302 106.948 117.827 106.948 118.474C106.948 119.121 107.472 119.646 108.12 119.646H110.708C111.355 119.646 111.88 119.121 111.88 118.474C111.88 117.827 111.355 117.302 110.708 117.302Z" fill="#0084D0"/>
<path d="M83.4062 87.4115V85.6981C84.1764 85.2804 84.7004 84.4647 84.7004 83.5286V79.6458C84.7004 76.145 81.8525 73.2967 78.3515 73.2967H70.5859C67.0851 73.2967 64.237 76.145 64.237 79.6458V83.5286C64.237 84.4645 64.7611 85.2803 65.5312 85.6981V87.2837C65.5312 90.0029 66.7379 92.4603 68.6347 94.129C65.3983 94.742 62.9426 97.5895 62.9426 101.001V105.531C62.9426 107.605 64.6297 109.292 66.7031 109.292H82.2343C84.3078 109.292 85.9948 107.605 85.9948 105.531V101.001C85.9948 97.6065 83.5642 94.77 80.352 94.1376C80.4822 94.0234 80.6106 93.9064 80.735 93.7839C82.4576 92.0901 83.4062 89.827 83.4062 87.4115V87.4115ZM66.5808 79.6458C66.5808 77.4372 68.3775 75.6404 70.5859 75.6404H78.3515C80.56 75.6404 82.3567 77.4372 82.3567 79.6458V83.5286C82.3567 83.5962 82.3017 83.6511 82.2343 83.6511C80.3365 83.6511 78.6859 82.304 78.3093 80.4481C78.0773 79.3042 77.0615 78.4739 75.894 78.4739H73.0436C71.8761 78.4739 70.8603 79.3042 70.6284 80.4479C70.2515 82.304 68.6008 83.6511 66.7033 83.6511C66.6358 83.6511 66.5809 83.5961 66.5809 83.5286V79.6458H66.5808ZM67.875 87.2836V85.8842C70.369 85.4129 72.4067 83.4678 72.9251 80.9142C72.9364 80.8584 72.9862 80.8178 73.0434 80.8178H75.8939C75.9511 80.8178 76.0009 80.8584 76.0122 80.9142C76.5304 83.4678 78.5682 85.4129 81.0623 85.8842V87.4115C81.0623 89.1936 80.3623 90.8633 79.0917 92.1129C77.8482 93.3358 76.2106 94.0051 74.469 94.0051C74.4314 94.0051 74.3934 94.0048 74.3554 94.0042C70.7822 93.9445 67.875 90.9297 67.875 87.2836V87.2836ZM69.7515 100.14C69.7379 100.161 69.7101 100.204 69.6345 100.194C69.5597 100.184 69.5426 100.136 69.5343 100.113L68.3083 96.6443C68.8159 96.4537 69.3653 96.3487 69.9387 96.3487H72.279L69.7515 100.14ZM74.4687 97.2897L76.3301 100.082L74.5423 101.423C74.4989 101.455 74.4386 101.455 74.3954 101.423L72.6075 100.082L74.4687 97.2897ZM76.6583 96.3489H78.9987C79.5722 96.3489 80.1215 96.4539 80.6292 96.6445L79.4031 100.113C79.395 100.136 79.3779 100.184 79.3028 100.194C79.2281 100.203 79.1993 100.161 79.1858 100.14L76.6583 96.3489ZM83.6511 105.531C83.6511 106.312 83.0156 106.948 82.2343 106.948H66.7031C65.9218 106.948 65.2864 106.312 65.2864 105.531V101.001C65.2864 99.8922 65.677 98.8729 66.3273 98.0726L67.3247 100.894C67.6378 101.78 68.4117 102.403 69.3443 102.52C69.4486 102.532 69.5523 102.539 69.6553 102.539C70.234 102.539 70.785 102.336 71.2223 101.973L72.989 103.298C73.4247 103.624 73.9467 103.788 74.4687 103.788C74.9909 103.788 75.5129 103.624 75.9486 103.298L77.7153 101.973C78.1525 102.336 78.7036 102.539 79.2822 102.539C79.3851 102.539 79.489 102.532 79.5933 102.52C80.5258 102.403 81.2997 101.78 81.6129 100.894L82.6103 98.0726C83.2604 98.8729 83.6512 99.8922 83.6512 101.001V105.531H83.6511Z" fill="#0084D0"/>
<path d="M71.8799 88.5835C72.5272 88.5835 73.0518 88.0589 73.0518 87.4116V86.7644C73.0518 86.1171 72.5272 85.5925 71.8799 85.5925C71.2325 85.5925 70.708 86.1171 70.708 86.7644V87.4116C70.708 88.0588 71.2327 88.5835 71.8799 88.5835Z" fill="#0084D0"/>
<path d="M77.0574 88.5835C77.7047 88.5835 78.2292 88.0589 78.2292 87.4116V86.7644C78.2292 86.1171 77.7047 85.5925 77.0574 85.5925C76.41 85.5925 75.8855 86.1171 75.8855 86.7644V87.4116C75.8855 88.0588 76.41 88.5835 77.0574 88.5835Z" fill="#0084D0"/>
</svg>
