<svg width="70" height="70" viewBox="0 0 70 70" fill="none" xmlns="http://www.w3.org/2000/svg">
<path d="M32.9396 49.9009C32.5801 49.9009 32.2273 50.047 31.973 50.3015C31.7189 50.5558 31.5724 50.9071 31.5724 51.2681C31.5724 51.6276 31.7187 51.9804 31.973 52.2345C32.2273 52.4888 32.5801 52.6353 32.9396 52.6353C33.2992 52.6353 33.6519 52.489 33.9062 52.2345C34.1604 51.9789 34.3068 51.6276 34.3068 51.2681C34.3068 50.907 34.1605 50.5558 33.9062 50.3015C33.6519 50.0472 33.2992 49.9009 32.9396 49.9009Z" fill="url(#paint0_linear)"/>
<path d="M59.0311 45.8171C58.6701 45.8171 58.3174 45.9633 58.0631 46.2177C57.8089 46.472 57.6639 46.8234 57.6639 47.1843C57.6639 47.5439 57.8089 47.8966 58.0631 48.1508C58.3174 48.4051 58.6701 48.5515 59.0311 48.5515C59.3906 48.5515 59.742 48.4052 59.9977 48.1508C60.252 47.8951 60.3983 47.5439 60.3983 47.1843C60.3983 46.8248 60.2521 46.472 59.9977 46.2177C59.742 45.9633 59.3905 45.8171 59.0311 45.8171Z" fill="url(#paint1_linear)"/>
<path d="M18.5854 39.2383C18.2258 39.2383 17.8731 39.3844 17.619 39.6389C17.3647 39.8932 17.2182 40.2459 17.2182 40.6055C17.2182 40.965 17.3645 41.3178 17.619 41.5719C17.8731 41.8262 18.2258 41.9727 18.5854 41.9727C18.945 41.9727 19.2977 41.8264 19.552 41.5719C19.8063 41.3178 19.9526 40.965 19.9526 40.6055C19.9526 40.2459 19.8065 39.8932 19.552 39.6389C19.2976 39.3846 18.945 39.2383 18.5854 39.2383Z" fill="url(#paint2_linear)"/>
<path d="M69.9999 14.839C69.9999 14.0839 69.3876 13.4719 68.6327 13.4719H66.5273C66.2398 12.5117 65.8565 11.5855 65.381 10.7026L66.8693 9.21416C67.4032 8.68027 67.4032 7.81457 66.8693 7.28068L62.7193 3.13086C62.1853 2.59697 61.3199 2.59697 60.7857 3.13086L59.2974 4.61918C58.4143 4.14367 57.4885 3.76031 56.5281 3.47266V1.36719C56.5281 0.612227 55.9159 0 55.161 0H49.292C48.5371 0 47.9248 0.61209 47.9248 1.36719V3.47771C46.9666 3.76592 46.0425 4.14955 45.1615 4.62492L43.6673 3.13072C43.1333 2.59684 42.2678 2.59684 41.7337 3.13072L37.5837 7.28068C37.2583 7.60621 37.1324 8.05478 37.2036 8.47643H5.47326C2.45533 8.47656 0 10.9319 0 13.95V51.6752C0 54.6931 2.45533 57.1484 5.47326 57.1484H27.1972V61.7969H23.9209C21.2043 61.7969 18.9941 64.0071 18.9941 66.7237V68.6328C18.9941 69.3878 19.6063 70 20.3612 70H45.5175C46.2725 70 46.8847 69.3878 46.8847 68.6328V66.7237C46.8847 64.0071 44.6746 61.7969 41.958 61.7969H38.6816V57.1484H60.393C63.4111 57.1484 65.8664 54.6931 65.8664 51.6752V29.2689L66.8693 28.2661C67.1256 28.0097 67.2697 27.6619 67.2697 27.2993C67.2697 26.9367 67.1256 26.5889 66.8693 26.3326L65.3751 24.8385C65.8506 23.9574 66.2341 23.0334 66.5224 22.0752H68.6329C68.9955 22.0752 69.3433 21.9311 69.5997 21.6747C69.856 21.4184 70.0001 21.0705 70.0001 20.708L69.9999 14.839ZM44.1503 66.7237V67.2656H21.7284V66.7237C21.7284 65.5147 22.7119 64.5312 23.9209 64.5312H41.958C43.1668 64.5312 44.1503 65.5147 44.1503 66.7237ZM35.9472 61.7969H29.9316V57.1484H35.9472V61.7969ZM63.1321 51.6752C63.1321 53.1854 61.9034 54.4141 60.393 54.4141H5.47326C3.96307 54.4141 2.73438 53.1854 2.73438 51.6752V48.5512H53.5624C54.3174 48.5512 54.9296 47.9389 54.9296 47.184C54.9296 46.429 54.3174 45.8168 53.5624 45.8168H2.73438V41.9727H13.1705C13.9255 41.9727 14.5377 41.3604 14.5377 40.6055C14.5377 39.8505 13.9255 39.2383 13.1705 39.2383H2.73438V13.95C2.73438 12.4396 3.96307 11.2109 5.47326 11.2109H38.8294C38.4727 11.9392 38.1757 12.6942 37.9427 13.4719H35.8204C35.4579 13.4719 35.1101 13.616 34.8537 13.8723C34.5974 14.1287 34.4531 14.4765 34.4531 14.839L34.4533 20.7078C34.4533 21.4629 35.0655 22.075 35.8204 22.075H37.9478C38.2349 23.0292 38.6166 23.9494 39.0893 24.8273L37.584 26.3327C37.0501 26.8666 37.0501 27.7323 37.584 28.2662L41.7339 32.416C42.268 32.9499 43.1334 32.9499 43.6676 32.416L45.1728 30.9107C46.0507 31.3835 46.9711 31.7652 47.9251 32.0522L47.925 34.1797C47.925 34.9346 48.5372 35.5469 49.2922 35.5469L55.1611 35.5467C55.9161 35.5467 56.5283 34.9346 56.5283 34.1796V32.0571C57.4844 31.7708 58.4067 31.3894 59.2864 30.9166L60.7858 32.416C61.0423 32.6724 61.39 32.8165 61.7526 32.8165C62.1152 32.8165 62.4628 32.6724 62.7193 32.416L63.1321 32.0033V51.6752ZM67.2656 19.3406H65.4668C64.8257 19.3406 64.2707 19.7862 64.1319 20.4122C63.8239 21.8031 63.2782 23.1178 62.5099 24.3194C62.1637 24.8593 62.2392 25.5695 62.6942 26.0246L63.9691 27.2995L61.7526 29.5158L60.4738 28.2371C60.0575 27.821 59.4217 27.7177 58.8952 27.9809C58.8528 28.0019 58.8118 28.0253 58.772 28.0506C57.5705 28.8161 56.2568 29.3591 54.8671 29.6651C54.2403 29.803 53.7938 30.3584 53.7938 31.0003V32.8125H50.6592V30.9967C50.6592 30.3555 50.2137 29.8004 49.5876 29.6618C48.2002 29.3546 46.8882 28.8105 45.6884 28.0447C45.4688 27.9044 45.2134 27.8299 44.9529 27.8299C44.5903 27.8299 44.2422 27.9742 43.9857 28.2305L42.7005 29.5158L40.4842 27.2993L41.7694 26.0142C42.2244 25.5592 42.2998 24.849 41.9538 24.3091C41.1887 23.11 40.6453 21.799 40.3382 20.4122C40.1996 19.7862 39.6445 19.3406 39.0033 19.3406H37.1875L37.1876 16.2062H38.9996C39.6413 16.2062 40.1968 15.7597 40.3349 15.1329C40.6403 13.7447 41.1828 12.4322 41.9474 11.2312C42.2933 10.6914 42.2179 9.98115 41.7629 9.52629L40.4841 8.24742L42.7005 6.03107L43.9753 7.30584C44.4441 7.77451 45.1687 7.83152 45.6997 7.47783C46.896 6.71603 48.2039 6.17449 49.5876 5.86824C50.2135 5.72961 50.6592 5.17453 50.6592 4.53346L50.6594 2.73438H53.7939V4.52949C53.7939 5.17125 54.2404 5.72674 54.8673 5.86469C56.2606 6.17148 57.5776 6.71658 58.7814 7.48508C58.8216 7.51078 58.8632 7.53416 58.9057 7.55549C59.4316 7.81854 60.0682 7.71545 60.4844 7.29928L61.7526 6.03094L63.9689 8.24742L62.7007 9.51562C62.637 9.57934 62.5799 9.64906 62.53 9.72398C62.2282 10.1765 62.2239 10.7644 62.5166 11.2209C63.2842 12.4242 63.8289 13.7402 64.1352 15.1326C64.2731 15.7594 64.8285 16.206 65.4705 16.206H67.2658V19.3406H67.2656Z" fill="url(#paint3_linear)"/>
<path d="M52.2266 9.29688C47.5526 9.29688 43.75 13.0994 43.75 17.7734C43.75 22.4474 47.5526 26.25 52.2266 26.25C56.9006 26.25 60.7031 22.4474 60.7031 17.7734C60.7031 13.0994 56.9006 9.29688 52.2266 9.29688ZM52.2266 23.5156C49.0603 23.5156 46.4844 20.9397 46.4844 17.7734C46.4844 14.6072 49.0603 12.0312 52.2266 12.0312C55.3928 12.0312 57.9688 14.6072 57.9688 17.7734C57.9688 20.9397 55.3928 23.5156 52.2266 23.5156Z" fill="url(#paint4_linear)"/>
<path d="M22.3768 25.5967C22.0157 25.5967 21.6645 25.743 21.4102 25.9973C21.1545 26.2516 21.0096 26.6043 21.0096 26.9652C21.0096 27.3248 21.1545 27.6775 21.4102 27.9318C21.6645 28.1861 22.0158 28.3311 22.3768 28.3311C22.7363 28.3311 23.0891 28.1861 23.3434 27.9318C23.5975 27.6775 23.744 27.3248 23.744 26.9652C23.744 26.6043 23.5977 26.2516 23.3434 25.9973C23.0891 25.743 22.7363 25.5967 22.3768 25.5967Z" fill="url(#paint5_linear)"/>
<path d="M33.0475 24.585C33.1414 24.2348 33.0922 23.8617 32.9109 23.5476L30.6024 19.5494C30.225 18.8956 29.3888 18.6714 28.7349 19.049L27.4199 19.8082C26.988 19.5028 26.5311 19.2385 26.0519 19.0172V17.5C26.0519 16.7449 25.4397 16.1328 24.6847 16.1328H20.0678C19.3129 16.1328 18.7007 16.7449 18.7007 17.5V19.0172C18.2215 19.2387 17.7645 19.5028 17.3327 19.8082L16.0177 19.049C15.7036 18.8677 15.3304 18.8188 14.9803 18.9124C14.6299 19.0064 14.3314 19.2354 14.1501 19.5494L11.8418 23.5476C11.4641 24.2015 11.6882 25.0376 12.3421 25.4152L13.6577 26.1748C13.6341 26.437 13.6222 26.7008 13.6222 26.9642C13.6222 27.2277 13.6341 27.4914 13.6577 27.7536L12.3421 28.5132C11.6882 28.8907 11.4641 29.7269 11.8418 30.3808L14.1501 34.379C14.3314 34.6931 14.63 34.9222 14.9803 35.016C15.3304 35.1098 15.7036 35.0608 16.0177 34.8794L17.3327 34.1202C17.7645 34.4256 18.2215 34.6899 18.7007 34.9113V36.4284C18.7007 37.1834 19.3129 37.7956 20.0678 37.7956H24.6847C25.4397 37.7956 26.0519 37.1834 26.0519 36.4284V34.9113C26.5311 34.6898 26.988 34.4256 27.4199 34.1202L28.7349 34.8794C29.3889 35.2569 30.2248 35.0329 30.6024 34.379L32.9109 30.3808C33.0922 30.0668 33.1414 29.6937 33.0475 29.3434C32.9536 28.9931 32.7246 28.6945 32.4105 28.5132L31.0949 27.7539C31.1185 27.4915 31.1304 27.2278 31.1304 26.9645C31.1304 26.7012 31.1185 26.4374 31.0949 26.1749L32.4105 25.4153C32.7244 25.2339 32.9536 24.9353 33.0475 24.585ZM28.2697 25.7322C28.3534 26.1356 28.3959 26.5501 28.3959 26.9644C28.3959 27.3786 28.3534 27.7931 28.2697 28.1965C28.1498 28.7741 28.414 29.3635 28.9248 29.6584L29.8592 30.1979L28.9179 31.8281L27.9819 31.2878C27.4708 30.9926 26.8274 31.0589 26.387 31.4528C25.7635 32.0104 25.0471 32.4246 24.2576 32.6841C23.6965 32.8686 23.3174 33.3923 23.3174 33.983V35.0617H21.4349V33.983C21.4349 33.3923 21.0558 32.8686 20.4947 32.6841C19.7051 32.4246 18.9886 32.0102 18.3653 31.4528C17.9251 31.0589 17.2818 30.9925 16.7703 31.2878L15.8344 31.8281L14.8932 30.1979L15.8275 29.6584C16.3383 29.3635 16.6024 28.7741 16.4825 28.1965C16.399 27.7936 16.3565 27.379 16.3565 26.9644C16.3565 26.5497 16.399 26.1353 16.4825 25.7322C16.6024 25.1546 16.3384 24.5654 15.8275 24.2703L14.8932 23.7308L15.8344 22.1007L16.7703 22.641C17.2815 22.9363 17.9249 22.8699 18.3653 22.476C18.9887 21.9185 19.7051 21.5042 20.4947 21.2447C21.0558 21.0603 21.4349 20.5365 21.4349 19.9459V18.8672H23.3174V19.9459C23.3174 20.5365 23.6965 21.0603 24.2576 21.2447C25.0471 21.5042 25.7637 21.9186 26.387 22.476C26.8271 22.8696 27.4703 22.9362 27.9819 22.641L28.9179 22.1006L29.8592 23.7308L28.9248 24.2703C28.414 24.5654 28.1498 25.1547 28.2697 25.7322Z" fill="url(#paint6_linear)"/>
<defs>
<linearGradient id="paint0_linear" x1="32.9396" y1="49.9009" x2="32.9396" y2="52.6353" gradientUnits="userSpaceOnUse">
<stop stop-color="#67ADEF"/>
<stop offset="1" stop-color="#3465E8"/>
</linearGradient>
<linearGradient id="paint1_linear" x1="59.0311" y1="45.8171" x2="59.0311" y2="48.5515" gradientUnits="userSpaceOnUse">
<stop stop-color="#67ADEF"/>
<stop offset="1" stop-color="#3465E8"/>
</linearGradient>
<linearGradient id="paint2_linear" x1="18.5854" y1="39.2383" x2="18.5854" y2="41.9727" gradientUnits="userSpaceOnUse">
<stop stop-color="#67ADEF"/>
<stop offset="1" stop-color="#3465E8"/>
</linearGradient>
<linearGradient id="paint3_linear" x1="35.0001" y1="0" x2="35.0001" y2="70" gradientUnits="userSpaceOnUse">
<stop stop-color="#67ADEF"/>
<stop offset="1" stop-color="#3465E8"/>
</linearGradient>
<linearGradient id="paint4_linear" x1="52.2266" y1="9.29687" x2="52.2266" y2="26.25" gradientUnits="userSpaceOnUse">
<stop stop-color="#67ADEF"/>
<stop offset="1" stop-color="#3465E8"/>
</linearGradient>
<linearGradient id="paint5_linear" x1="22.3768" y1="25.5967" x2="22.3768" y2="28.3311" gradientUnits="userSpaceOnUse">
<stop stop-color="#67ADEF"/>
<stop offset="1" stop-color="#3465E8"/>
</linearGradient>
<linearGradient id="paint6_linear" x1="22.3762" y1="16.1328" x2="22.3762" y2="37.7956" gradientUnits="userSpaceOnUse">
<stop stop-color="#67ADEF"/>
<stop offset="1" stop-color="#3465E8"/>
</linearGradient>
</defs>
</svg>
