<svg width="70" height="70" viewBox="0 0 70 70" fill="none" xmlns="http://www.w3.org/2000/svg">
<path d="M66.5 14H53.6667V1.16667C53.6667 0.857247 53.5438 0.560501 53.325 0.341709C53.1062 0.122916 52.8094 0 52.5 0H17.5C17.1906 0 16.8938 0.122916 16.675 0.341709C16.4562 0.560501 16.3333 0.857247 16.3333 1.16667V14H3.5C2.57259 14.0028 1.68396 14.3724 1.02819 15.0282C0.372408 15.684 0.00276977 16.5726 0 17.5V54.8333C0.00276977 55.7607 0.372408 56.6494 1.02819 57.3051C1.68396 57.9609 2.57259 58.3306 3.5 58.3333H26.6233L25.8417 63H24.5C24.3191 63.0012 24.1409 63.044 23.9791 63.1249C23.8173 63.2058 23.6762 63.3227 23.5667 63.4667L20.0667 68.1333C19.9367 68.3067 19.8575 68.5128 19.838 68.7286C19.8186 68.9443 19.8596 69.1613 19.9565 69.3551C20.0534 69.5489 20.2023 69.7119 20.3866 69.8258C20.571 69.9397 20.7833 70 21 70H49C49.2167 70 49.429 69.9397 49.6133 69.8258C49.7977 69.7119 49.9466 69.5489 50.0435 69.3551C50.1404 69.1613 50.1814 68.9443 50.162 68.7286C50.1425 68.5128 50.0633 68.3067 49.9333 68.1333L46.4333 63.4667C46.3238 63.3227 46.1827 63.2058 46.0209 63.1249C45.8591 63.044 45.6809 63.0012 45.5 63H44.1583L43.3767 58.3333H66.5C67.4274 58.3306 68.316 57.9609 68.9718 57.3051C69.6276 56.6494 69.9972 55.7607 70 54.8333V17.5C69.9972 16.5726 69.6276 15.684 68.9718 15.0282C68.316 14.3724 67.4274 14.0028 66.5 14ZM18.6667 2.33333H51.3333V25.6667H18.6667V2.33333ZM44.9167 65.3333L46.6667 67.6667H23.3333L25.0833 65.3333H44.9167ZM28.21 63L28.9917 58.3333H41.0083L41.79 63H28.21ZM67.6667 54.8333C67.6667 55.1427 67.5437 55.4395 67.325 55.6583C67.1062 55.8771 66.8094 56 66.5 56H3.5C3.19058 56 2.89383 55.8771 2.67504 55.6583C2.45625 55.4395 2.33333 55.1427 2.33333 54.8333V51.3333H67.6667V54.8333ZM67.6667 49H2.33333V17.5C2.33333 17.1906 2.45625 16.8938 2.67504 16.675C2.89383 16.4562 3.19058 16.3333 3.5 16.3333H16.3333V26.8333C16.3333 27.1428 16.4562 27.4395 16.675 27.6583C16.8938 27.8771 17.1906 28 17.5 28H52.5C52.8094 28 53.1062 27.8771 53.325 27.6583C53.5438 27.4395 53.6667 27.1428 53.6667 26.8333V16.3333H66.5C66.8094 16.3333 67.1062 16.4562 67.325 16.675C67.5437 16.8938 67.6667 17.1906 67.6667 17.5V49Z" fill="url(#paint0_linear)"/>
<path d="M64.1666 30.3333H50.1666C49.8572 30.3333 49.5605 30.4562 49.3417 30.675C49.1229 30.8938 49 31.1905 49 31.4999V32.6666H39.6666V31.4999C39.6666 31.1905 39.5437 30.8938 39.3249 30.675C39.1061 30.4562 38.8094 30.3333 38.5 30.3333H31.5C31.1905 30.3333 30.8938 30.4562 30.675 30.675C30.4562 30.8938 30.3333 31.1905 30.3333 31.4999V32.6666H21V31.4999C21 31.1905 20.877 30.8938 20.6583 30.675C20.4395 30.4562 20.1427 30.3333 19.8333 30.3333H5.83329C5.52387 30.3333 5.22713 30.4562 5.00833 30.675C4.78954 30.8938 4.66663 31.1905 4.66663 31.4999V36.1666C4.66663 36.476 4.78954 36.7728 5.00833 36.9915C5.22713 37.2103 5.52387 37.3333 5.83329 37.3333H19.8333C20.1427 37.3333 20.4395 37.2103 20.6583 36.9915C20.877 36.7728 21 36.476 21 36.1666V34.9999H30.3333V36.1666C30.3333 36.476 30.4562 36.7728 30.675 36.9915C30.8938 37.2103 31.1905 37.3333 31.5 37.3333H33.8333V39.6666H31.5C31.1905 39.6666 30.8938 39.7895 30.675 40.0083C30.4562 40.2271 30.3333 40.5238 30.3333 40.8333V45.4999C30.3333 45.8093 30.4562 46.1061 30.675 46.3249C30.8938 46.5437 31.1905 46.6666 31.5 46.6666H38.5C38.8094 46.6666 39.1061 46.5437 39.3249 46.3249C39.5437 46.1061 39.6666 45.8093 39.6666 45.4999V40.8333C39.6666 40.5238 39.5437 40.2271 39.3249 40.0083C39.1061 39.7895 38.8094 39.6666 38.5 39.6666H36.1666V37.3333H38.5C38.8094 37.3333 39.1061 37.2103 39.3249 36.9915C39.5437 36.7728 39.6666 36.476 39.6666 36.1666V34.9999H49V36.1666C49 36.476 49.1229 36.7728 49.3417 36.9915C49.5605 37.2103 49.8572 37.3333 50.1666 37.3333H64.1666C64.476 37.3333 64.7728 37.2103 64.9916 36.9915C65.2104 36.7728 65.3333 36.476 65.3333 36.1666V31.4999C65.3333 31.1905 65.2104 30.8938 64.9916 30.675C64.7728 30.4562 64.476 30.3333 64.1666 30.3333ZM18.6666 34.9999H6.99996V32.6666H18.6666V34.9999ZM37.3333 41.9999V44.3333H32.6666V41.9999H37.3333ZM37.3333 34.9999H32.6666V32.6666H37.3333V34.9999ZM63 34.9999H51.3333V32.6666H63V34.9999Z" fill="url(#paint1_linear)"/>
<path d="M28.3418 6.17505L21.3418 13.175C21.1231 13.3938 21.0002 13.6905 21.0002 13.9999C21.0002 14.3092 21.1231 14.6059 21.3418 14.8247L28.3418 21.8247L29.9915 20.175L23.8163 13.9999L29.9915 7.82472L28.3418 6.17505Z" fill="url(#paint2_linear)"/>
<path d="M41.6582 6.17505L40.0085 7.82472L46.1837 13.9999L40.0085 20.175L41.6582 21.8247L48.6582 14.8247C48.8769 14.6059 48.9998 14.3092 48.9998 13.9999C48.9998 13.6905 48.8769 13.3938 48.6582 13.175L41.6582 6.17505Z" fill="url(#paint3_linear)"/>
<path d="M37.3968 3.13123L30.39 24.1294L32.6023 24.8676L39.609 3.86943L37.3968 3.13123Z" fill="url(#paint4_linear)"/>
<defs>
<linearGradient id="paint0_linear" x1="35" y1="0" x2="35" y2="70" gradientUnits="userSpaceOnUse">
<stop stop-color="#67ADEF"/>
<stop offset="1" stop-color="#3465E8"/>
</linearGradient>
<linearGradient id="paint1_linear" x1="35" y1="30.3333" x2="35" y2="46.6666" gradientUnits="userSpaceOnUse">
<stop stop-color="#67ADEF"/>
<stop offset="1" stop-color="#3465E8"/>
</linearGradient>
<linearGradient id="paint2_linear" x1="25.4959" y1="6.17505" x2="25.4959" y2="21.8247" gradientUnits="userSpaceOnUse">
<stop stop-color="#67ADEF"/>
<stop offset="1" stop-color="#3465E8"/>
</linearGradient>
<linearGradient id="paint3_linear" x1="44.5042" y1="6.17505" x2="44.5042" y2="21.8247" gradientUnits="userSpaceOnUse">
<stop stop-color="#67ADEF"/>
<stop offset="1" stop-color="#3465E8"/>
</linearGradient>
<linearGradient id="paint4_linear" x1="33.8934" y1="13.6303" x2="36.1056" y2="14.3685" gradientUnits="userSpaceOnUse">
<stop stop-color="#67ADEF"/>
<stop offset="1" stop-color="#3465E8"/>
</linearGradient>
</defs>
</svg>
