<svg width="91" height="90" viewBox="0 0 91 90" fill="none" xmlns="http://www.w3.org/2000/svg">
<g clip-path="url(#clip0)">
<path d="M33.3467 71.7405L28.5159 69.7397H28.3176L25.4156 69.0187V67.2161C27.2263 67.49 28.9949 67.9927 30.6789 68.7122C30.9896 68.8601 31.3434 68.8904 31.6748 68.7976C32.0061 68.7049 32.2927 68.4952 32.4814 68.2075L32.5716 68.0994C35.4339 64.292 36.9664 59.65 36.9337 54.8869C36.9337 44.0717 29.3811 35.2033 20.0801 35.2033C10.7791 35.2033 3.22649 44.0357 3.22649 54.8869C3.17674 59.7398 4.77141 64.4666 7.75083 68.2976V68.4058C7.90251 68.5239 8.07318 68.6153 8.25553 68.6762H8.41776H9.01259H9.19285C10.8721 67.9569 12.634 67.4484 14.4382 67.162V68.9646L11.3378 69.7036H11.1215L6.52511 71.7405C4.54 72.5388 2.84883 73.929 1.6814 75.722C0.513966 77.5151 -0.0730999 79.6241 -2.27378e-05 81.7625V88.576C0.00465127 88.9522 0.156179 89.3117 0.422223 89.5778C0.688268 89.8438 1.04776 89.9953 1.42397 90H38.4298C38.8076 89.9907 39.1671 89.8353 39.4327 89.5663C39.6983 89.2974 39.8492 88.9359 39.8538 88.558V81.7625C39.9256 79.6267 39.3402 77.5204 38.1764 75.7281C37.0127 73.9357 35.3269 72.5438 33.3467 71.7405ZM9.31902 65.684C7.14321 62.5002 5.99802 58.7249 6.03843 54.8688C6.03843 45.5858 12.3112 38.0333 20.044 38.0333C27.7769 38.0333 34.0496 45.5858 34.0496 54.8688C34.0873 58.7218 32.9491 62.4946 30.7871 65.684C29.8711 65.3683 28.9384 65.1035 27.9932 64.8909C29.1105 63.6203 29.8585 62.0681 30.1562 60.4026C31.1972 60.1933 32.1337 59.6301 32.8064 58.8087C33.4792 57.9872 33.8469 56.9581 33.8469 55.8963C33.8469 54.8345 33.4792 53.8054 32.8064 52.9839C32.1337 52.1624 31.1972 51.5992 30.1562 51.39C30.0677 51.1702 29.9257 50.9759 29.7432 50.8248C29.5606 50.6737 29.3432 50.5706 29.1107 50.5248C26.0141 50.0328 23.1883 48.47 21.1255 46.1086C20.9078 45.8005 20.5768 45.5914 20.205 45.5272C19.8333 45.463 19.4512 45.5489 19.1428 45.7661L18.9625 45.9283C16.632 48.0486 13.844 49.603 10.8151 50.4707C10.6003 50.5265 10.4018 50.6323 10.2357 50.7796C10.0697 50.9268 9.94085 51.1113 9.85978 51.3179C8.81877 51.5271 7.88232 52.0903 7.20952 52.9118C6.53673 53.7333 6.1691 54.7623 6.1691 55.8242C6.1691 56.886 6.53673 57.9151 7.20952 58.7366C7.88232 59.558 8.81877 60.1212 9.85978 60.3305C10.1716 62.0308 10.9519 63.6102 12.1129 64.8909C11.1664 65.0984 10.2334 65.3633 9.31902 65.684ZM30.3184 57.2662V54.3641C30.6928 54.6329 30.9501 55.0349 31.0372 55.4875C31.1244 55.9401 31.0349 56.4089 30.7871 56.7975C30.664 56.9837 30.5046 57.1431 30.3184 57.2662ZM9.76965 54.3641V57.2662C9.39523 56.9974 9.138 56.5954 9.05083 56.1428C8.96367 55.6902 9.05319 55.2214 9.301 54.8328C9.429 54.6507 9.58756 54.4921 9.76965 54.3641ZM12.6176 58.6361V52.8861C15.2822 51.9921 17.7663 50.631 19.9539 48.8664C22.0787 50.8459 24.6712 52.2538 27.4885 52.9582V58.6361C27.479 60.3764 26.7822 62.0425 25.5499 63.2714C24.3176 64.5004 22.6496 65.1926 20.9092 65.1973H19.1067C17.3791 65.1783 15.7287 64.4787 14.5138 63.2503C13.2989 62.0219 12.6175 60.3638 12.6176 58.6361ZM16.421 71.434C16.7291 71.3545 17.0023 71.1752 17.1979 70.9241C17.3936 70.6731 17.5006 70.3644 17.5025 70.0461V67.8831C18.0561 67.9817 18.6166 68.0359 19.1788 68.0453H20.9813C21.5376 68.0368 22.0923 67.9826 22.6397 67.8831V70.0461C22.6424 70.3621 22.7501 70.6682 22.9459 70.9162C23.1417 71.1642 23.4145 71.34 23.7212 71.416L26.461 72.101L26.2087 72.9662C24.3602 74.0376 22.2616 74.6018 20.1251 74.6018C17.9887 74.6018 15.8901 74.0376 14.0416 72.9662L13.7172 72.101L16.421 71.434ZM14.0597 87.152H9.3731V81.4561C9.39562 81.2568 9.37582 81.0551 9.31498 80.864C9.25415 80.673 9.15366 80.497 9.02008 80.3474C8.88651 80.1979 8.72286 80.0783 8.53986 79.9964C8.35685 79.9144 8.15862 79.8721 7.95812 79.8721C7.75762 79.8721 7.55938 79.9144 7.37638 79.9964C7.19337 80.0783 7.02973 80.1979 6.89615 80.3474C6.76258 80.497 6.66209 80.673 6.60125 80.864C6.54042 81.0551 6.52061 81.2568 6.54314 81.4561V87.152H2.93809V81.7445C2.85879 80.1908 3.26123 78.6505 4.0904 77.3342C4.91956 76.0178 6.13499 74.9896 7.57057 74.3902L10.9954 72.9662L11.3559 74.282L14.9609 87.152H14.0597ZM22.171 87.152H18.0252L14.9609 76.5712C16.6019 77.167 18.3343 77.472 20.0801 77.4725C21.8041 77.4729 23.514 77.1615 25.1271 76.5532L22.171 87.152ZM37.0238 87.152H33.3286V81.4561C33.3286 81.0784 33.1786 80.7162 32.9116 80.4491C32.6445 80.1821 32.2823 80.0321 31.9046 80.0321C31.527 80.0321 31.1648 80.1821 30.8977 80.4491C30.6307 80.7162 30.4806 81.0784 30.4806 81.4561V87.152H25.0731L29.0206 73.0383L32.2651 74.3721C33.7057 74.9666 34.9265 75.993 35.7593 77.3101C36.5922 78.6272 36.9962 80.1702 36.9157 81.7264V87.134L37.0238 87.152Z" fill="url(#paint0_linear)"/>
<path d="M22.9821 21.8466H29.3811V28.4438C29.3811 28.8215 29.5311 29.1837 29.7982 29.4507C30.0652 29.7178 30.4274 29.8678 30.8051 29.8678C31.0096 29.868 31.2117 29.8247 31.3982 29.7408C31.5847 29.6569 31.7511 29.5343 31.8866 29.3811L34.8608 25.9383C34.9584 26.2186 35.1413 26.4613 35.3836 26.6326C35.626 26.8039 35.9159 26.8952 36.2127 26.8936H51.6062L58.1314 34.4462C58.3809 34.7253 58.7292 34.8963 59.1026 34.9232C59.476 34.9501 59.8452 34.8308 60.1322 34.5904C60.2881 34.4573 60.4127 34.2913 60.4968 34.1043C60.581 33.9173 60.6226 33.7139 60.6188 33.5089V26.8936H67.0358C67.4135 26.8936 67.7757 26.7436 68.0427 26.4766C68.3098 26.2095 68.4598 25.8473 68.4598 25.4697V6.48908C68.4598 6.11142 68.3098 5.74922 68.0427 5.48217C67.7757 5.21512 67.4135 5.06509 67.0358 5.06509H55.2293V1.46004C55.2341 1.27003 55.2008 1.08098 55.1314 0.904028C55.062 0.727078 54.9579 0.565814 54.8252 0.429742C54.6925 0.29367 54.5338 0.185544 54.3587 0.111738C54.1835 0.0379316 53.9954 -6.08483e-05 53.8053 7.31501e-08H22.9821C22.6171 0.0185061 22.2732 0.176665 22.0215 0.441736C21.7699 0.706807 21.6298 1.05849 21.6303 1.42399V20.4226C21.6341 20.7868 21.7756 21.1361 22.0264 21.4002C22.2772 21.6644 22.6186 21.8238 22.9821 21.8466ZM24.4061 2.84799H52.3813V5.06509H49.9299C49.7306 5.04257 49.5289 5.06237 49.3379 5.12321C49.1468 5.18404 48.9708 5.28453 48.8212 5.41811C48.6717 5.55168 48.5521 5.71533 48.4702 5.89833C48.3883 6.08133 48.3459 6.27957 48.3459 6.48007C48.3459 6.68057 48.3883 6.87881 48.4702 7.06181C48.5521 7.24482 48.6717 7.40846 48.8212 7.54204C48.9708 7.67561 49.1468 7.7761 49.3379 7.83694C49.5289 7.89777 49.7306 7.91757 49.9299 7.89505H65.6118V24.1178H59.1948C58.8172 24.1178 58.455 24.2678 58.1879 24.5348C57.9209 24.8019 57.7708 25.1641 57.7708 25.5418V29.7597L53.3186 24.6044C53.1831 24.4513 53.0167 24.3287 52.8302 24.2448C52.6437 24.1609 52.4416 24.1176 52.2371 24.1178H37.6186V7.89505H45.1892C45.3885 7.91757 45.5902 7.89777 45.7812 7.83694C45.9723 7.7761 46.1483 7.67561 46.2979 7.54204C46.4474 7.40846 46.567 7.24482 46.6489 7.06181C46.7308 6.87881 46.7732 6.68057 46.7732 6.48007C46.7732 6.27957 46.7308 6.08133 46.6489 5.89833C46.567 5.71533 46.4474 5.55168 46.2979 5.41811C46.1483 5.28453 45.9723 5.18404 45.7812 5.12321C45.5902 5.06237 45.3885 5.04257 45.1892 5.06509H36.1766C35.992 5.06509 35.8092 5.10146 35.6386 5.17211C35.468 5.24277 35.313 5.34633 35.1824 5.47689C35.0519 5.60745 34.9483 5.76244 34.8777 5.93302C34.807 6.1036 34.7706 6.28642 34.7706 6.47106V21.6303L32.2111 24.5864V20.4226C32.2064 20.0464 32.0549 19.6869 31.7888 19.4208C31.5228 19.1548 31.1633 19.0033 30.7871 18.9986H24.4061V2.77589V2.84799Z" fill="url(#paint1_linear)"/>
<path d="M83.619 71.6503L78.8784 69.6675L75.706 67.5586V66.7835C76.9301 66.1104 77.9901 65.1746 78.8097 64.0433C79.6294 62.912 80.1884 61.6133 80.4466 60.2403C81.2503 60.09 81.9997 59.7287 82.6179 59.1936C83.2362 58.6585 83.7011 57.9687 83.9652 57.1948C84.2292 56.4209 84.2829 55.5908 84.1208 54.7894C83.9586 53.9879 83.5864 53.244 83.0422 52.6337V48.1634C83.0375 44.9141 81.7446 41.7992 79.4469 39.5016C77.1493 37.2039 74.0344 35.911 70.7851 35.9063H69.8838C68.2735 35.9039 66.6786 36.2193 65.1904 36.8344C63.7022 37.4496 62.35 38.3524 61.2114 39.491C60.0727 40.6297 59.17 41.9818 58.5548 43.47C57.9397 44.9582 57.6243 46.5531 57.6266 48.1634V52.6697C57.226 53.1192 56.9179 53.6432 56.72 54.2119C56.5222 54.7806 56.4384 55.3827 56.4736 55.9838C56.5087 56.5849 56.6621 57.1731 56.9249 57.7148C57.1877 58.2566 57.5548 58.7411 58.0052 59.1408C58.6323 59.6993 59.3981 60.0791 60.2223 60.2403C60.4737 61.6063 61.0221 62.9005 61.8289 64.0311C62.6356 65.1618 63.6809 66.1014 64.8908 66.7835V67.4684L61.6823 69.5954H61.5561L56.7434 71.6143C54.7688 72.4251 53.0909 73.823 51.9368 75.6187C50.7826 77.4144 50.2079 79.5213 50.2904 81.6543V88.4678C50.2904 88.8455 50.4404 89.2077 50.7075 89.4748C50.9745 89.7418 51.3367 89.8918 51.7144 89.8918H61.0514C61.4291 89.8918 61.7913 89.7418 62.0584 89.4748C62.3254 89.2077 62.4754 88.8455 62.4754 88.4678C62.4754 88.0902 62.3254 87.728 62.0584 87.4609C61.7913 87.1939 61.4291 87.0439 61.0514 87.0439H59.6815V81.3479C59.6815 80.9702 59.5315 80.608 59.2644 80.341C58.9974 80.0739 58.6352 79.9239 58.2575 79.9239C57.8799 79.9239 57.5177 80.0739 57.2506 80.341C56.9836 80.608 56.8335 80.9702 56.8335 81.3479V87.0439H53.1384V81.6363C53.0549 80.0841 53.4559 78.5444 54.2858 77.2301C55.1157 75.9158 56.3335 74.8919 57.7708 74.3H57.861L61.2858 72.876L65.2693 87.116C65.0859 87.1373 64.9084 87.1945 64.7471 87.2844C64.5858 87.3743 64.4437 87.495 64.3291 87.6398C64.2144 87.7846 64.1294 87.9506 64.0789 88.1282C64.0284 88.3058 64.0133 88.4917 64.0346 88.6751C64.0559 88.8586 64.1131 89.036 64.203 89.1974C64.2929 89.3587 64.4137 89.5008 64.5585 89.6154C64.7033 89.7301 64.8692 89.8151 65.0469 89.8656C65.2245 89.9161 65.4103 89.9312 65.5938 89.9099H88.7202C88.9087 89.9099 89.0954 89.8725 89.2693 89.7998C89.4433 89.7271 89.6011 89.6206 89.7335 89.4864C89.866 89.3523 89.9705 89.1932 90.041 89.0183C90.1115 88.8435 90.1466 88.6564 90.1442 88.4678V81.6543C90.2109 79.5195 89.621 77.4156 88.4542 75.6266C87.2873 73.8376 85.5997 72.4498 83.619 71.6503ZM80.5908 54.256C80.9789 54.5169 81.2505 54.9185 81.348 55.3759C81.4456 55.8334 81.3615 56.3108 81.1135 56.7074C80.9855 56.8895 80.827 57.048 80.6449 57.176L80.5908 54.256ZM60.042 57.176C59.6627 56.9068 59.4021 56.5014 59.3148 56.0446C59.2275 55.5877 59.3201 55.1147 59.5734 54.7246C59.7014 54.5425 59.8599 54.384 60.042 54.256V57.176ZM61.466 50.3084H61.0514V48.1454C61.0562 45.6483 62.0515 43.2551 63.819 41.491C65.5864 39.727 67.9815 38.7362 70.4786 38.7362H71.3799C73.8754 38.7362 76.2686 39.7275 78.0332 41.4921C79.7978 43.2567 80.7891 45.6499 80.7891 48.1454V50.723H80.6088C77.6527 50.0561 76.7334 46.2347 76.7154 46.1987C76.675 46.017 76.5989 45.8452 76.4917 45.6932C76.3844 45.5411 76.248 45.4119 76.0904 45.313C75.9327 45.214 75.7571 45.1474 75.5735 45.1169C75.3899 45.0864 75.2021 45.0926 75.021 45.1352C74.6895 45.212 74.3958 45.4035 74.1918 45.6759C70.5868 50.6509 62.6917 50.687 62.5836 50.687L61.466 50.3084ZM62.89 58.5279V53.1204C66.8535 52.8641 70.6365 51.3699 73.7052 48.8484C74.5269 50.609 75.9532 52.0162 77.7248 52.8139V58.582C77.7201 60.3224 77.0278 61.9903 75.7989 63.2226C74.57 64.4549 72.9039 65.1517 71.1636 65.1612H69.3611C67.6208 65.1517 65.9547 64.4549 64.7258 63.2226C63.4968 61.9903 62.8046 60.3224 62.7999 58.582L62.89 58.5279ZM69.1267 76.9137L70.2443 76.0845L71.416 76.9497L71.0374 77.9231H69.5413L69.1267 76.9137ZM70.2984 72.2812L67.8289 69.8658V68.2616V67.7749C68.375 67.8833 68.9305 67.9376 69.4873 67.9371H71.2898C71.8465 67.9376 72.402 67.8833 72.9481 67.7749V69.5774L70.2984 72.2812ZM66.6933 81.8706L65.9183 79.1488C66.0411 79.107 66.1567 79.0461 66.2607 78.9685L66.6933 78.6441L67.0538 79.5273L66.6933 81.8706ZM66.0264 75.706L64.0076 71.5421L64.999 70.8932C65.0674 71.128 65.1982 71.3398 65.3775 71.5061L68.0993 74.1738L66.0264 75.706ZM68.8023 87.0979L69.8117 80.8071H70.8211L71.8305 87.0979H68.8023ZM75.2914 71.1816C75.3789 71.0981 75.4519 71.0006 75.5077 70.8932L76.4991 71.5421L74.4802 75.706L73.9936 75.3455L72.4073 74.1738L75.2914 71.1816ZM73.8854 81.9968L73.4889 79.5814L73.7953 78.7883L74.1738 79.0587C74.3142 79.1651 74.4731 79.2446 74.6425 79.293L73.8854 81.9968ZM87.2962 87.152H83.6911V81.3659C83.6911 80.9882 83.5411 80.626 83.2741 80.359C83.007 80.0919 82.6448 79.9419 82.2671 79.9419C81.8895 79.9419 81.5273 80.0919 81.2602 80.359C80.9932 80.626 80.8432 80.9882 80.8432 81.3659V87.0619H75.4356L79.311 72.9481L82.5375 74.3C83.9781 74.8944 85.1988 75.9209 86.0317 77.238C86.8646 78.5551 87.2686 80.098 87.188 81.6543L87.2962 87.152Z" fill="url(#paint2_linear)"/>
</g>
<defs>
<linearGradient id="paint0_linear" x1="-2.27385e-05" y1="62.6017" x2="39.8538" y2="62.6017" gradientUnits="userSpaceOnUse">
<stop stop-color="#67ADEF"/>
<stop offset="1" stop-color="#3465E8"/>
</linearGradient>
<linearGradient id="paint1_linear" x1="581.712" y1="338.442" x2="1800.22" y2="338.442" gradientUnits="userSpaceOnUse">
<stop stop-color="#67ADEF"/>
<stop offset="1" stop-color="#3465E8"/>
</linearGradient>
<linearGradient id="paint2_linear" x1="1162.56" y1="1920.42" x2="2044.02" y2="1920.42" gradientUnits="userSpaceOnUse">
<stop stop-color="#67ADEF"/>
<stop offset="1" stop-color="#3465E8"/>
</linearGradient>
<clipPath id="clip0">
<rect width="90.1442" height="90" fill="white"/>
</clipPath>
</defs>
</svg>
