<svg width="80" height="71" viewBox="0 0 80 71" fill="none" xmlns="http://www.w3.org/2000/svg">
<g clip-path="url(#clip0)">
<path d="M78.736 60.912H74.96V25.248C74.906 23.9974 74.3655 22.8174 73.4539 21.9596C72.5422 21.1017 71.3316 20.634 70.08 20.656H63.68V19.392C63.6745 19.0577 63.5431 18.7377 63.312 18.496L53.216 8.432C52.9846 8.17736 52.6634 8.02248 52.32 8H20.8C20.3041 8.00833 19.8147 8.11428 19.3598 8.31178C18.9048 8.50928 18.4933 8.79447 18.1486 9.15106C17.8038 9.50766 17.5328 9.92866 17.3508 10.39C17.1688 10.8514 17.0795 11.3441 17.088 11.84V20.656H10.688C9.43642 20.634 8.22576 21.1017 7.31413 21.9596C6.4025 22.8174 5.86205 23.9974 5.808 25.248V60.912H2C1.66477 60.912 1.34326 61.0452 1.10622 61.2822C0.869171 61.5193 0.736 61.8408 0.736 62.176V66.48C0.736 67.6724 1.20968 68.816 2.05285 69.6592C2.47034 70.0766 2.96598 70.4078 3.51146 70.6338C4.05694 70.8597 4.64158 70.976 5.232 70.976H75.504C76.6964 70.976 77.84 70.5023 78.6832 69.6592C79.5263 68.816 80 67.6724 80 66.48V62.176C80 61.8408 79.8668 61.5193 79.6298 61.2822C79.3927 61.0452 79.0712 60.912 78.736 60.912ZM70.08 23.168C70.6691 23.1328 71.2483 23.3316 71.6917 23.7211C72.1351 24.1105 72.4069 24.6593 72.448 25.248V60.912H63.648V23.168H70.08ZM37.216 58.368H38.48C38.8152 58.368 39.1367 58.2348 39.3738 57.9978C39.6108 57.7607 39.744 57.4392 39.744 57.104C39.744 56.7688 39.6108 56.4473 39.3738 56.2102C39.1367 55.9732 38.8152 55.84 38.48 55.84H37.216V53.36H38.48C38.6568 53.38 38.8359 53.3624 39.0055 53.3084C39.1751 53.2544 39.3314 53.1652 39.4641 53.0467C39.5968 52.9281 39.703 52.7828 39.7757 52.6204C39.8484 52.4579 39.886 52.282 39.886 52.104C39.886 51.926 39.8484 51.7501 39.7757 51.5876C39.703 51.4252 39.5968 51.2799 39.4641 51.1614C39.3314 51.0428 39.1751 50.9536 39.0055 50.8996C38.8359 50.8456 38.6568 50.828 38.48 50.848H37.216V48.336H38.48C38.8152 48.336 39.1367 48.2028 39.3738 47.9658C39.6108 47.7287 39.744 47.4072 39.744 47.072C39.744 46.7368 39.6108 46.4153 39.3738 46.1782C39.1367 45.9412 38.8152 45.808 38.48 45.808H37.216V43.296H38.48C38.6568 43.316 38.8359 43.2984 39.0055 43.2444C39.1751 43.1904 39.3314 43.1012 39.4641 42.9827C39.5968 42.8641 39.703 42.7188 39.7757 42.5564C39.8484 42.3939 39.886 42.218 39.886 42.04C39.886 41.862 39.8484 41.6861 39.7757 41.5236C39.703 41.3612 39.5968 41.2159 39.4641 41.0974C39.3314 40.9788 39.1751 40.8896 39.0055 40.8356C38.8359 40.7816 38.6568 40.764 38.48 40.784H37.216V38.256H38.48C38.6568 38.276 38.8359 38.2584 39.0055 38.2044C39.1751 38.1504 39.3314 38.0612 39.4641 37.9427C39.5968 37.8241 39.703 37.6788 39.7757 37.5164C39.8484 37.3539 39.886 37.178 39.886 37C39.886 36.822 39.8484 36.6461 39.7757 36.4836C39.703 36.3212 39.5968 36.1759 39.4641 36.0574C39.3314 35.9388 39.1751 35.8496 39.0055 35.7956C38.8359 35.7416 38.6568 35.724 38.48 35.744H37.216V33.232H38.48C38.6568 33.252 38.8359 33.2344 39.0055 33.1804C39.1751 33.1264 39.3314 33.0372 39.4641 32.9186C39.5968 32.8001 39.703 32.6548 39.7757 32.4924C39.8484 32.3299 39.886 32.154 39.886 31.976C39.886 31.798 39.8484 31.6221 39.7757 31.4596C39.703 31.2972 39.5968 31.1519 39.4641 31.0334C39.3314 30.9148 39.1751 30.8256 39.0055 30.7716C38.8359 30.7176 38.6568 30.7 38.48 30.72H37.216V28.192H43.52V60.912H37.216V58.368ZM51.056 40.768H54.784V60.896H51.056V40.768ZM51.536 38.24L52.944 33.024L54.4 38.256L51.536 38.24ZM25.936 54.608H29.696V55.856H25.904L25.936 54.608ZM29.648 40.768V52.08H25.904V40.784L29.648 40.768ZM26.448 38.24L27.84 33.024L29.248 38.24H26.448ZM25.968 58.384H29.728V60.896H25.904L25.968 58.384ZM30.992 63.408H50.72C50.4968 63.7882 50.1793 64.1044 49.798 64.3258C49.4168 64.5473 48.9848 64.6665 48.544 64.672H30.944C30.5102 64.6628 30.0858 64.5434 29.7107 64.3251C29.3357 64.1068 29.0223 63.7967 28.8 63.424L30.992 63.408ZM53.584 12.368L59.344 18.128H53.584V12.368ZM20.8 10.592H51.056V19.392C51.0602 19.7259 51.1947 20.045 51.4308 20.2812C51.667 20.5173 51.9861 20.6519 52.32 20.656H61.136V60.912H57.36V39.888C57.3768 39.782 57.3768 39.674 57.36 39.568L54.16 27.872C54.0866 27.6057 53.9279 27.3708 53.7083 27.2032C53.4887 27.0356 53.2202 26.9446 52.944 26.944C52.6671 26.9418 52.3973 27.0319 52.1772 27.1999C51.957 27.3679 51.799 27.6043 51.728 27.872L48.608 39.568C48.5925 39.6741 48.5925 39.7819 48.608 39.888V60.912H46.032V26.944C46.032 26.6088 45.8988 26.2873 45.6618 26.0502C45.4247 25.8132 45.1032 25.68 44.768 25.68H35.968C35.6328 25.68 35.3113 25.8132 35.0742 26.0502C34.8372 26.2873 34.704 26.6088 34.704 26.944V60.912H32.192V39.888C32.2088 39.782 32.2088 39.674 32.192 39.568L28.992 27.872C28.921 27.6043 28.763 27.3679 28.5428 27.1999C28.3227 27.0319 28.0529 26.9418 27.776 26.944C27.5004 26.9472 27.2332 27.0392 27.0141 27.2064C26.795 27.3736 26.6358 27.607 26.56 27.872L23.44 39.568C23.4242 39.6741 23.4242 39.7819 23.44 39.888V60.912H19.616V11.84C19.6156 11.5198 19.7382 11.2117 19.9586 10.9794C20.179 10.7471 20.4802 10.6084 20.8 10.592ZM8.288 25.248C8.32911 24.6593 8.60089 24.1105 9.04429 23.7211C9.48769 23.3316 10.0669 23.1328 10.656 23.168H17.056V60.912H8.288V25.248ZM77.488 66.48C77.4838 67.0049 77.2734 67.5071 76.9023 67.8783C76.5311 68.2495 76.0289 68.4598 75.504 68.464H5.232C4.96802 68.4682 4.70581 68.4202 4.4605 68.3226C4.21519 68.2249 3.99163 68.0797 3.80273 67.8953C3.61382 67.7108 3.4633 67.4908 3.35986 67.2479C3.25641 67.005 3.20208 66.744 3.2 66.48V63.424H26.08C26.3517 64.4946 26.9697 65.4454 27.8378 66.1284C28.7059 66.8113 29.7755 67.1881 30.88 67.2H48.48C49.5831 67.1827 50.65 66.8039 51.5171 66.1218C52.3841 65.4397 53.0035 64.492 53.28 63.424H77.488V66.48Z" fill="url(#paint0_linear)"/>
<path d="M2.848 8.68792C2.848 8.40628 2.76448 8.13096 2.60801 7.89678C2.45154 7.66261 2.22914 7.48009 1.96894 7.37231C1.70874 7.26453 1.42242 7.23633 1.14619 7.29128C0.869963 7.34622 0.616231 7.48185 0.417081 7.681C0.217931 7.88015 0.0823078 8.13388 0.0273624 8.41011C-0.027583 8.68634 0.000616992 8.97266 0.108396 9.23286C0.216175 9.49306 0.398693 9.71546 0.632869 9.87193C0.867044 10.0284 1.14236 10.1119 1.424 10.1119C1.80167 10.1119 2.16387 9.96189 2.43092 9.69484C2.69797 9.42779 2.848 9.06558 2.848 8.68792Z" fill="url(#paint1_linear)"/>
<path d="M9.392 5.71192C9.63093 5.94722 9.95266 6.07936 10.288 6.07992C10.457 6.08355 10.625 6.0528 10.7818 5.98954C10.9386 5.92629 11.0808 5.83184 11.2 5.71192L12.064 4.79992L12.944 5.69592C13.1833 5.93045 13.505 6.06182 13.84 6.06182C14.175 6.06182 14.4967 5.93045 14.736 5.69592C14.9668 5.45472 15.0956 5.13376 15.0956 4.79992C15.0956 4.46609 14.9668 4.14513 14.736 3.90392L13.84 3.03992L14.736 2.14392C14.9475 1.90181 15.0587 1.58822 15.0472 1.26698C15.0356 0.945729 14.9021 0.640959 14.6737 0.414677C14.4454 0.188396 14.1395 0.0576066 13.8181 0.0489209C13.4968 0.0402351 13.1842 0.154306 12.944 0.367923L12.064 1.26392L11.2 0.367923C11.0839 0.250369 10.9456 0.157034 10.7932 0.0933316C10.6408 0.0296288 10.4772 -0.00317383 10.312 -0.00317383C10.1468 -0.00317383 9.98323 0.0296288 9.83079 0.0933316C9.67836 0.157034 9.54009 0.250369 9.424 0.367923C9.30645 0.484007 9.21311 0.622277 9.14941 0.774712C9.08571 0.927146 9.05291 1.09071 9.05291 1.25592C9.05291 1.42113 9.08571 1.5847 9.14941 1.73713C9.21311 1.88957 9.30645 2.02784 9.424 2.14392L10.32 3.03992L9.424 3.91992C9.30596 4.03738 9.2123 4.177 9.14838 4.33076C9.08447 4.48453 9.05156 4.6494 9.05156 4.81592C9.05156 4.98244 9.08447 5.14732 9.14838 5.30109C9.2123 5.45485 9.30596 5.59447 9.424 5.71192H9.392Z" fill="url(#paint2_linear)"/>
<path d="M24.64 15.6159H42.24C42.4168 15.6359 42.5959 15.6184 42.7655 15.5644C42.9351 15.5104 43.0913 15.4212 43.2241 15.3026C43.3568 15.184 43.463 15.0388 43.5357 14.8763C43.6084 14.7139 43.646 14.5379 43.646 14.3599C43.646 14.182 43.6084 14.006 43.5357 13.8436C43.463 13.6811 43.3568 13.5359 43.2241 13.4173C43.0913 13.2987 42.9351 13.2095 42.7655 13.1555C42.5959 13.1015 42.4168 13.084 42.24 13.1039H24.64C24.3313 13.1388 24.0463 13.2862 23.8393 13.5179C23.6324 13.7495 23.518 14.0493 23.518 14.3599C23.518 14.6706 23.6324 14.9704 23.8393 15.202C24.0463 15.4337 24.3313 15.5811 24.64 15.6159Z" fill="url(#paint3_linear)"/>
<path d="M24.64 19.3919H33.456C33.7647 19.357 34.0497 19.2096 34.2567 18.978C34.4636 18.7463 34.578 18.4465 34.578 18.1359C34.578 17.8252 34.4636 17.5255 34.2567 17.2938C34.0497 17.0621 33.7647 16.9148 33.456 16.8799H24.64C24.3313 16.9148 24.0463 17.0621 23.8393 17.2938C23.6324 17.5255 23.518 17.8252 23.518 18.1359C23.518 18.4465 23.6324 18.7463 23.8393 18.978C24.0463 19.2096 24.3313 19.357 24.64 19.3919Z" fill="url(#paint4_linear)"/>
<path d="M37.216 18.1279C37.216 18.2939 37.2487 18.4582 37.3122 18.6116C37.3757 18.765 37.4688 18.9043 37.5862 19.0217C37.7036 19.139 37.8429 19.2321 37.9963 19.2957C38.1496 19.3592 38.314 19.3919 38.48 19.3919H47.296C47.6047 19.357 47.8897 19.2096 48.0967 18.978C48.3036 18.7463 48.418 18.4465 48.418 18.1359C48.418 17.8252 48.3036 17.5255 48.0967 17.2938C47.8897 17.0621 47.6047 16.9148 47.296 16.8799H38.48C38.1475 16.8799 37.8284 17.0108 37.5918 17.2444C37.3552 17.478 37.2202 17.7954 37.216 18.1279Z" fill="url(#paint5_linear)"/>
</g>
<defs>
<linearGradient id="paint0_linear" x1="0.736" y1="39.52" x2="80" y2="39.52" gradientUnits="userSpaceOnUse">
<stop stop-color="#67ADEF"/>
<stop offset="1" stop-color="#3465E8"/>
</linearGradient>
<linearGradient id="paint1_linear" x1="0" y1="22.7286" x2="5.06944" y2="22.7286" gradientUnits="userSpaceOnUse">
<stop stop-color="#67ADEF"/>
<stop offset="1" stop-color="#3465E8"/>
</linearGradient>
<linearGradient id="paint2_linear" x1="43.1401" y1="11.5553" x2="66.1075" y2="11.5553" gradientUnits="userSpaceOnUse">
<stop stop-color="#67ADEF"/>
<stop offset="1" stop-color="#3465E8"/>
</linearGradient>
<linearGradient id="paint3_linear" x1="317.789" y1="35.7721" x2="571" y2="35.7721" gradientUnits="userSpaceOnUse">
<stop stop-color="#67ADEF"/>
<stop offset="1" stop-color="#3465E8"/>
</linearGradient>
<linearGradient id="paint4_linear" x1="185.216" y1="45.3409" x2="263.41" y2="45.3409" gradientUnits="userSpaceOnUse">
<stop stop-color="#67ADEF"/>
<stop offset="1" stop-color="#3465E8"/>
</linearGradient>
<linearGradient id="paint5_linear" x1="297.775" y1="45.3409" x2="377.085" y2="45.3409" gradientUnits="userSpaceOnUse">
<stop stop-color="#67ADEF"/>
<stop offset="1" stop-color="#3465E8"/>
</linearGradient>
<clipPath id="clip0">
<rect width="80" height="70.976" fill="white"/>
</clipPath>
</defs>
</svg>
