<svg xmlns="http://www.w3.org/2000/svg" xmlns:xlink="http://www.w3.org/1999/xlink" viewBox="0 0 50.29 45.84"><defs><style>.cls-1{opacity:0.1;}.cls-2{fill:#c0c0f6;}.cls-3{fill:url(#linear-gradient);}.cls-4{fill:#f0f0f9;}.cls-5{opacity:0.5;}.cls-6{opacity:0;}.cls-7{fill:#fdcde7;}.cls-8{opacity:0.14;}.cls-9{opacity:0.29;}.cls-10{opacity:0.43;}.cls-11{opacity:0.57;}.cls-12{opacity:0.71;}.cls-13{opacity:0.86;}.cls-14{fill:#ffdf75;}.cls-15{fill:#f5e981;}.cls-16{fill:#ff61cb;}.cls-17{opacity:0.6;}.cls-18{opacity:0.7;}.cls-19{fill:#a9fffe;}.cls-20{fill:#a8fefd;}.cls-21{fill:#a7fdfc;}.cls-22{fill:#a6fcfb;}.cls-23{fill:#a4faf9;}.cls-24{fill:#a3f9f8;}.cls-25{fill:#a2f8f7;}.cls-26{fill:#a1f7f6;}.cls-27{opacity:0.8;}.cls-28{fill:url(#linear-gradient-2);}.cls-29{fill:url(#linear-gradient-3);}.cls-30{fill:url(#linear-gradient-4);}.cls-31{fill:#b53892;}.cls-32{fill:#111114;}.cls-33{fill:#efb185;}.cls-34{fill:#e6a376;}.cls-35{fill:#9dbcc9;}.cls-36{fill:#cae0ea;}.cls-37{fill:#09294f;}.cls-38{fill:#16365c;}.cls-39{fill:#dd9569;}.cls-40{fill:#131c24;}.cls-41{fill:#1d2833;}.cls-42{fill:#f1b287;}</style><linearGradient id="linear-gradient" x1="9.87" y1="27.46" x2="36.92" y2="27.46" gradientUnits="userSpaceOnUse"><stop offset="0" stop-color="#fff2c9"/><stop offset="1" stop-color="#ffb7bb"/></linearGradient><linearGradient id="linear-gradient-2" x1="32.61" y1="10.93" x2="-19.38" y2="-25.85" xlink:href="#linear-gradient"/><linearGradient id="linear-gradient-3" x1="33.57" y1="9.58" x2="-18.42" y2="-27.2" xlink:href="#linear-gradient"/><linearGradient id="linear-gradient-4" x1="34.52" y1="8.23" x2="-17.46" y2="-28.55" xlink:href="#linear-gradient"/></defs><title>ilustracao-01</title><g id="Camada_2" data-name="Camada 2"><g id="Layer_1" data-name="Layer 1"><g class="cls-1"><polygon points="0 38 11.11 44.45 36.76 29.64 25.39 22.95 0 38"/></g><path class="cls-2" d="M9.93,44.24,9.87,25.77l-.71-.41.05,18.46a.48.48,0,0,0,.2.44l.71.41A.48.48,0,0,1,9.93,44.24Z"/><polygon class="cls-2" points="9.87 25.77 9.16 25.36 9.16 22.86 9.87 23.28 9.87 25.77"/><path class="cls-3" d="M36.86,10.19l-27,15.58.05,18.46c0,.44.31.61.69.39L36.23,29.84a1.5,1.5,0,0,0,.68-1.18Z"/><path class="cls-4" d="M36.17,7.31c.38-.22.68,0,.69.39v2.5l-27,15.58v-2.5a1.5,1.5,0,0,1,.68-1.18Z"/><path class="cls-2" d="M36.32,7.24l.11,0h.12l.1,0h0l-.71-.41,0,0h-.35l-.1,0L9.84,21.68l-.13.09,0,0-.06,0,0,0,0,0,0,0L9.48,22l0,0h0l0,0,0,.06,0,.06h0l0,0,0,.06,0,.05h0l0,.06,0,.07v.07l0,.08v.1a.91.91,0,0,0,0,.13l.71.41a1,1,0,0,1,0-.16v0a1.09,1.09,0,0,1,0-.15h0a1.5,1.5,0,0,1,.06-.16h0l.08-.16h0l.1-.15h0l.1-.12,0,0,.09-.08,0,0,.13-.09L36.17,7.31l.13-.06Z"/><path class="cls-2" d="M11.56,23.85a1.38,1.38,0,0,0,.62-1.08c0-.4-.28-.56-.63-.36a1.37,1.37,0,0,0-.62,1.08c0,.4.28.56.63.36Z"/><path class="cls-2" d="M13.46,22.75a1.37,1.37,0,0,0,.62-1.08c0-.4-.28-.56-.63-.36a1.37,1.37,0,0,0-.62,1.08c0,.4.28.56.63.36Z"/><path class="cls-2" d="M15.31,21.68a1.37,1.37,0,0,0,.62-1.08c0-.4-.28-.56-.63-.36a1.37,1.37,0,0,0-.62,1.08c0,.4.28.56.63.36Z"/><g class="cls-5"><g class="cls-6"><path class="cls-7" d="M4,33.29,2.75,34a.26.26,0,0,1-.26,0L1.2,33.29a.26.26,0,0,1,0-.45l1.28-.74a.26.26,0,0,1,.26,0L4,32.84A.26.26,0,0,1,4,33.29Z"/></g><g class="cls-8"><path class="cls-7" d="M4,31.78l-1.28.74a.26.26,0,0,1-.26,0L1.2,31.78a.26.26,0,0,1,0-.45l1.28-.74a.26.26,0,0,1,.26,0L4,31.33A.26.26,0,0,1,4,31.78Z"/></g><g class="cls-9"><path class="cls-7" d="M4,30.28,2.75,31a.26.26,0,0,1-.26,0L1.2,30.28a.26.26,0,0,1,0-.45l1.28-.74a.26.26,0,0,1,.26,0L4,29.83A.26.26,0,0,1,4,30.28Z"/></g><g class="cls-10"><path class="cls-7" d="M4,28.77l-1.28.74a.26.26,0,0,1-.26,0L1.2,28.77a.26.26,0,0,1,0-.45l1.28-.74a.26.26,0,0,1,.26,0L4,28.32A.26.26,0,0,1,4,28.77Z"/></g><g class="cls-11"><path class="cls-7" d="M4,27.27,2.75,28a.26.26,0,0,1-.26,0L1.2,27.27a.26.26,0,0,1,0-.45l1.28-.74a.26.26,0,0,1,.26,0L4,26.82A.26.26,0,0,1,4,27.27Z"/></g><g class="cls-12"><path class="cls-7" d="M4,25.77l-1.28.74a.26.26,0,0,1-.26,0L1.2,25.77a.26.26,0,0,1,0-.45l1.28-.74a.26.26,0,0,1,.26,0L4,25.32A.26.26,0,0,1,4,25.77Z"/></g><g class="cls-13"><path class="cls-7" d="M4,24.26,2.75,25a.26.26,0,0,1-.26,0L1.2,24.26a.26.26,0,0,1,0-.45l1.28-.74a.26.26,0,0,1,.26,0L4,23.81A.26.26,0,0,1,4,24.26Z"/></g><path class="cls-7" d="M4,22.76l-1.28.74a.26.26,0,0,1-.26,0L1.2,22.76a.26.26,0,0,1,0-.45l1.28-.74a.26.26,0,0,1,.26,0L4,22.31A.26.26,0,0,1,4,22.76Z"/></g><path class="cls-7" d="M4,22.76l-1.28.74a.26.26,0,0,1-.26,0L1.2,22.76a.26.26,0,0,1,0-.45l1.28-.74a.26.26,0,0,1,.26,0L4,22.31A.26.26,0,0,1,4,22.76Z"/><g class="cls-5"><g class="cls-6"><path class="cls-14" d="M40.64,8l-1.13.66a.23.23,0,0,1-.23,0L38.12,8a.23.23,0,0,1,0-.4l1.13-.66a.23.23,0,0,1,.23,0l1.14.66A.23.23,0,0,1,40.64,8Z"/></g><g class="cls-8"><path class="cls-14" d="M40.64,7l-1.13.66a.23.23,0,0,1-.23,0L38.12,7a.23.23,0,0,1,0-.4l1.13-.66a.23.23,0,0,1,.23,0l1.14.66A.23.23,0,0,1,40.64,7Z"/></g><g class="cls-9"><path class="cls-14" d="M40.64,6l-1.13.66a.23.23,0,0,1-.23,0L38.12,6a.23.23,0,0,1,0-.4L39.26,5a.23.23,0,0,1,.23,0l1.14.66A.23.23,0,0,1,40.64,6Z"/></g><g class="cls-10"><path class="cls-14" d="M40.64,5l-1.13.66a.23.23,0,0,1-.23,0L38.12,5a.23.23,0,0,1,0-.4L39.26,4a.23.23,0,0,1,.23,0l1.14.66A.23.23,0,0,1,40.64,5Z"/></g><g class="cls-11"><path class="cls-14" d="M40.64,4l-1.13.66a.23.23,0,0,1-.23,0L38.12,4a.23.23,0,0,1,0-.4L39.26,3a.23.23,0,0,1,.23,0l1.14.66A.23.23,0,0,1,40.64,4Z"/></g><g class="cls-12"><path class="cls-14" d="M40.64,3.06l-1.13.66a.23.23,0,0,1-.23,0l-1.14-.66a.23.23,0,0,1,0-.4L39.26,2a.23.23,0,0,1,.23,0l1.14.66A.23.23,0,0,1,40.64,3.06Z"/></g><g class="cls-13"><path class="cls-14" d="M40.64,2.08l-1.13.66a.23.23,0,0,1-.23,0l-1.14-.66a.23.23,0,0,1,0-.4L39.26,1a.23.23,0,0,1,.23,0l1.14.66A.23.23,0,0,1,40.64,2.08Z"/></g><path class="cls-14" d="M40.64,1.09l-1.13.66a.23.23,0,0,1-.23,0l-1.14-.66a.23.23,0,0,1,0-.4L39.26,0a.23.23,0,0,1,.23,0l1.14.66A.23.23,0,0,1,40.64,1.09Z"/></g><path class="cls-15" d="M40.64,1.09l-1.13.66a.23.23,0,0,1-.23,0l-1.14-.66a.23.23,0,0,1,0-.4L39.26,0a.23.23,0,0,1,.23,0l1.14.66A.23.23,0,0,1,40.64,1.09Z"/><g class="cls-5"><polygon class="cls-16" points="30.38 21.14 30.38 21.61 25.29 24.54 25.29 24.07 30.38 21.14"/></g><g class="cls-17"><polygon class="cls-16" points="41.03 16.27 41.04 19.62 33.82 23.8 33.81 20.45 41.03 16.27"/></g><g class="cls-5"><path class="cls-16" d="M33.07,20.05l8.51-4.91,0,7.44-8.51,4.91Zm8-.43V16.28l-7.23,4.17V23.8L41,19.62Z"/></g><g class="cls-5"><polygon class="cls-16" points="41.58 13.8 41.58 14.36 33.07 19.28 33.07 18.71 41.58 13.8"/></g><g class="cls-5"><polygon class="cls-16" points="30.39 25.36 30.4 28.68 25.31 31.61 25.3 28.29 30.39 25.36"/></g><g class="cls-17"><path class="cls-16" d="M24.73,21.2l6.49-3.75,0,11.43-6.49,3.75Zm5.66,7.48V25.36L25.3,28.29v3.32l5.08-2.93Zm0-9.4v-.47l-5.08,2.93v.47l5.08-2.93Zm0,2.32v-.47l-5.08,2.93v.47l5.08-2.93Zm0,1.06v-.47l-5.08,2.94v.47l5.08-2.93Zm0-2.32v-.47l-5.08,2.93v.47l5.08-2.93Z"/></g><g class="cls-18"><path class="cls-16" d="M24.05,19.26,42.36,8.69l0,14.37L24.09,33.63Zm7.2,9.62,0-11.43L24.73,21.2l0,11.43,6.49-3.75ZM41.6,22.58l0-7.44-8.51,4.91,0,7.44,8.51-4.91Zm0-11.73V9.58L24.48,19.44v1.27l17.09-9.86Zm0,1.2v-.56l-8.51,4.91V17L41.57,12Zm0,1.06v-.56l-8.51,4.91V18l8.51-4.91Zm0,1.27V13.8l-8.51,4.91v.56l8.51-4.91Z"/></g><g class="cls-5"><polygon class="cls-16" points="41.58 12.53 41.58 13.1 33.06 18.01 33.06 17.45 41.58 12.53"/></g><g class="cls-5"><polygon class="cls-16" points="24.73 20.22 34.01 14.86 34.01 14.26 24.73 19.62 24.73 20.22"/></g><g class="cls-5"><path class="cls-16" d="M41.57,10.84V9.58L24.48,19.44v1.27Zm-.34-.75v.6l-3.67,2.12v-.6l3.67-2.12ZM34,14.26v.6l-9.28,5.36v-.6L34,14.26Z"/></g><g class="cls-5"><polygon class="cls-16" points="41.23 10.09 41.23 10.69 37.56 12.81 37.56 12.21 41.23 10.09"/></g><g class="cls-5"><polygon class="cls-16" points="41.57 11.48 41.57 12.04 33.06 16.95 33.06 16.39 41.57 11.48"/></g><g class="cls-5"><polygon class="cls-16" points="30.38 22.19 30.38 22.66 25.3 25.6 25.29 25.13 30.38 22.19"/></g><g class="cls-5"><polygon class="cls-16" points="30.37 19.87 30.37 20.34 25.29 23.27 25.29 22.81 30.37 19.87"/></g><g class="cls-5"><polygon class="cls-16" points="30.37 18.82 30.37 19.29 25.29 22.22 25.29 21.75 30.37 18.82"/></g><g class="cls-5"><polygon class="cls-16" points="20.34 12.51 20.34 13.02 14.79 16.22 14.79 15.71 20.34 12.51"/><polygon class="cls-16" points="20.35 17.12 20.36 20.74 14.81 23.94 14.8 20.32 20.35 17.12"/><g class="cls-17"><path class="cls-16" d="M14.18,12.58l7.09-4.09L21.3,21l-7.09,4.09Zm6.18,8.16V17.12l-5.55,3.2v3.62l5.55-3.2Zm0-10.25V10l-5.55,3.2v.51l5.55-3.2Zm0,2.53v-.51l-5.55,3.2v.51L20.34,13Zm0,1.15v-.51l-5.55,3.2v.51l5.55-3.2Zm0-2.53v-.51l-5.55,3.2v.51l5.55-3.2Z"/></g><path class="cls-16" d="M22,7.38,13.91,12V10.66L22,6V5.53l-8.54,4.93,0,15.68L22,21.24Zm-7.8,5.2,7.09-4.09L21.3,21l-7.09,4.09Z"/><polygon class="cls-16" points="21.98 6.34 14.17 10.85 14.17 11.5 21.98 7 21.98 6.34"/><polygon class="cls-16" points="21.98 7 14.17 11.5 14.17 10.85 21.98 6.34 21.98 6 13.9 10.66 13.91 12.04 21.98 7.38 21.98 7"/><polygon class="cls-16" points="20.34 13.66 20.34 14.17 14.79 17.38 14.79 16.86 20.34 13.66"/><polygon class="cls-16" points="20.33 11.13 20.33 11.64 14.79 14.84 14.78 14.33 20.33 11.13"/><polygon class="cls-16" points="20.33 9.97 20.33 10.49 14.78 13.69 14.78 13.18 20.33 9.97"/></g><g class="cls-5"><polygon class="cls-16" points="19.93 30.6 19.93 33.95 12.71 38.12 12.7 34.77 19.93 30.6"/><g class="cls-17"><path class="cls-16" d="M12,34.38l8.51-4.91,0,7.44L12,41.82Zm8-.43V30.6L12.7,34.77v3.35L19.93,34Z"/></g><polygon class="cls-16" points="20.47 28.13 20.47 28.69 11.96 33.6 11.96 33.04 20.47 28.13"/><g class="cls-18"><path class="cls-16" d="M11.51,29.07l8.95-5.17v1.27l-9,5.17V43l9.79-5.65,0-14.37-9.75,5.63Zm9,7.83L12,41.82l0-7.44,8.51-4.91Zm0-8.21L12,33.6V33l8.51-4.91Zm0-1.27L12,32.34v-.56l8.51-4.91Zm0-1.06L12,31.28v-.56l8.51-4.91Z"/></g><polygon class="cls-16" points="20.47 26.86 20.47 27.42 11.96 32.34 11.95 31.77 20.47 26.86"/><path class="cls-16" d="M20.46,23.9l-8.95,5.17v1.27l9-5.17Zm-4,3.23v-.6l3.67-2.12V25Z"/><polygon class="cls-16" points="20.12 24.42 20.12 25.01 16.45 27.14 16.45 26.54 20.12 24.42"/><polygon class="cls-16" points="20.46 25.8 20.46 26.37 11.95 31.28 11.95 30.72 20.46 25.8"/></g><g class="cls-18"><g class="cls-6"><path class="cls-19" d="M50.2,31.91l-.86.52a.18.18,0,0,1-.18,0l-.89-.49a.18.18,0,0,1,0-.31l.86-.52a.18.18,0,0,1,.18,0l.89.49A.18.18,0,0,1,50.2,31.91Z"/></g><g class="cls-8"><path class="cls-20" d="M50.19,30.47l-.86.52a.18.18,0,0,1-.18,0l-.89-.49a.18.18,0,0,1,0-.31l.86-.52a.18.18,0,0,1,.18,0l.89.49A.18.18,0,0,1,50.19,30.47Z"/></g><g class="cls-9"><path class="cls-21" d="M50.17,29l-.86.52a.18.18,0,0,1-.18,0l-.89-.49a.18.18,0,0,1,0-.31l.86-.52a.18.18,0,0,1,.18,0l.89.49A.18.18,0,0,1,50.17,29Z"/></g><g class="cls-10"><path class="cls-22" d="M50.15,27.59l-.86.52a.18.18,0,0,1-.18,0l-.89-.49a.18.18,0,0,1,0-.31l.86-.52a.18.18,0,0,1,.18,0l.89.49A.18.18,0,0,1,50.15,27.59Z"/></g><g class="cls-11"><path class="cls-23" d="M50.14,26.15l-.86.52a.18.18,0,0,1-.18,0l-.89-.49a.18.18,0,0,1,0-.31l.86-.52a.18.18,0,0,1,.18,0l.89.49A.18.18,0,0,1,50.14,26.15Z"/></g><g class="cls-12"><path class="cls-24" d="M50.12,24.71l-.86.52a.18.18,0,0,1-.18,0l-.89-.49a.18.18,0,0,1,0-.31l.86-.52a.18.18,0,0,1,.18,0l.89.49A.18.18,0,0,1,50.12,24.71Z"/></g><g class="cls-13"><path class="cls-25" d="M50.1,23.27l-.86.52a.18.18,0,0,1-.18,0l-.89-.49a.18.18,0,0,1,0-.31l.86-.52a.18.18,0,0,1,.18,0l.89.49A.18.18,0,0,1,50.1,23.27Z"/></g><path class="cls-26" d="M50.09,21.83l-.86.52a.18.18,0,0,1-.18,0l-.89-.49a.18.18,0,0,1,0-.31L49,21a.18.18,0,0,1,.18,0l.89.49A.18.18,0,0,1,50.09,21.83Z"/></g><g class="cls-27"><path class="cls-25" d="M50.08,21.83l-.86.52a.18.18,0,0,1-.18,0l-.89-.49a.18.18,0,0,1,0-.31L49,21a.18.18,0,0,1,.18,0l.89.49A.18.18,0,0,1,50.08,21.83Z"/></g><g class="cls-17"><path class="cls-28" d="M26.75,7l-1.5.16V6.88l1.5-1.57v.32L25.6,6.83l1.15-.11Z"/><path class="cls-29" d="M28.68,3.1,27.35,7.78,27,8l1.33-4.68Z"/><path class="cls-30" d="M29,5.44,30.1,4.23,29,4.35V4l1.5-.16v.31L29,5.76Z"/></g><g class="cls-5"><path class="cls-31" d="M30.06,18.74c.71-.41,1.29-.08,1.29.74a2.82,2.82,0,0,1-1.28,2.22c-.71.41-1.29.08-1.29-.73A2.83,2.83,0,0,1,30.06,18.74Z"/></g><g class="cls-5"><path class="cls-31" d="M30.06,19.31c.46-.27.83-.05.84.48a1.83,1.83,0,0,1-.83,1.44c-.46.27-.84.05-.84-.48A1.83,1.83,0,0,1,30.06,19.31Z"/></g><g class="cls-5"><path class="cls-31" d="M30.06,19.86c.22-.13.39,0,.39.22a.86.86,0,0,1-.39.68c-.22.13-.39,0-.39-.22A.86.86,0,0,1,30.06,19.86Z"/></g><g class="cls-5"><path class="cls-31" d="M25.8,23.88c.71-.41,1.29-.08,1.29.74a2.82,2.82,0,0,1-1.28,2.22c-.71.41-1.29.08-1.29-.73A2.83,2.83,0,0,1,25.8,23.88Z"/></g><g class="cls-5"><path class="cls-31" d="M25.8,24.45c.46-.27.83-.05.84.48a1.83,1.83,0,0,1-.83,1.44c-.46.27-.84.05-.84-.48A1.83,1.83,0,0,1,25.8,24.45Z"/></g><g class="cls-5"><path class="cls-31" d="M25.8,25c.22-.13.39,0,.39.22a.86.86,0,0,1-.39.68c-.22.13-.39,0-.39-.22A.86.86,0,0,1,25.8,25Z"/></g><path class="cls-32" d="M32.95,44.86s.4.64-.15.79-.39-.19-1.59.11-1.06-.37-1-.51.55-.33.81-.4l1.31-.31.64.12Z"/><path class="cls-33" d="M31.22,21.71a5.63,5.63,0,0,0-.18-1c-.09-.16-.45-.84-1.06-.94-.33-.06-.15.29.16.68a.71.71,0,0,1,.24.66,2.55,2.55,0,0,0,.1.89C30.54,22.19,31.22,21.71,31.22,21.71Z"/><path class="cls-34" d="M30.46,22a3,3,0,0,0-.26-.83c-.19-.27.08-.51-.07-.68s-.4-.59-.31-.67c.16.25.56.17.77.91A4.86,4.86,0,0,1,30.68,22C30.53,22,30.48,22,30.46,22Z"/><path class="cls-33" d="M30.71,21.93s-.58-.75-.72-1-.14-.49-.07-.47.53.75.73.52S30.65,21.8,30.71,21.93Z"/><path class="cls-35" d="M36.45,25.46s-.07,1-1.4.68-3.71-1.34-4-2a14.15,14.15,0,0,1-.62-2.36s.64.21.89-.31l1,2.13S36.52,24.73,36.45,25.46Z"/><path class="cls-36" d="M36.45,25.46c.07-.73-4.1-1.83-4.1-1.83l-1-2.13a.57.57,0,0,1-.38.33,11,11,0,0,0,.54,2c.3.64,2.69,1.61,4,2a1.44,1.44,0,0,0,.86,0A.93.93,0,0,0,36.45,25.46Z"/><path class="cls-32" d="M34.31,42.46s-.5.08-.38.36.69.72.77.91.54.83.69.77.54,0,.5-.71A1.63,1.63,0,0,0,34.31,42.46Z"/><path class="cls-37" d="M35.84,32.73s0,4.28,0,4.77.54,4.28.21,5.94a1.18,1.18,0,0,1-1.76,0s-.26-4.76-.5-5.83a30.61,30.61,0,0,1-.16-4.36Z"/><path class="cls-37" d="M34.2,33.34s-.21,2.77-.43,5.51c0,0-.14,5.44-.27,6.23,0,0-1.76.44-1.93-.39,0,0,0-4.79,0-5.79a23.54,23.54,0,0,1,.25-5.41C32.21,31.87,34.2,33.34,34.2,33.34Z"/><path class="cls-38" d="M33.5,45.07c.13-.78.27-6.23.27-6.23.15-1.85.29-3.7.37-4.72l-1.08.27a14.18,14.18,0,0,0-.66,5.13c.09,2.38.13,4.73.14,5.67A4.43,4.43,0,0,0,33.5,45.07Z"/><path class="cls-38" d="M36.06,43.44c.32-1.66-.21-5.46-.21-5.94s0-4.37,0-4.74l-.94.72a23.84,23.84,0,0,0,0,4.81c.27,1.59.1,4.68.23,5.56A1.5,1.5,0,0,0,36.06,43.44Z"/><path class="cls-36" d="M36.14,25.09s.84.42.36,1.85a11.21,11.21,0,0,0-.78,2.89,23.55,23.55,0,0,0,.34,2.69s.14,1.18-2.55,1.88c0,0-2.21.22-1.85-1.23a19.25,19.25,0,0,0,.45-4.37,2,2,0,0,1,1-2.44C34.52,25.59,35.25,25,36.14,25.09Z"/><path class="cls-36" d="M35.52,25.15a12.54,12.54,0,0,0-2.41,1.2,2,2,0,0,0-1,2.44,19.25,19.25,0,0,1-.45,4.37c-.29,1.17,1.08,1.26,1.63,1.24C35.76,32.69,35.54,28.24,35.52,25.15Z"/><path class="cls-33" d="M35.14,24.44a2.62,2.62,0,0,0,.18,1.31c.25.46-1.64.87-1.69.45a1.82,1.82,0,0,0-.1-1.56C33.3,24.21,35.14,24.44,35.14,24.44Z"/><path class="cls-39" d="M35.31,25.78a2.37,2.37,0,0,1-.19-1.17l-1.38.69h0s1,.25,1.19.92C35.21,26.1,35.41,25.94,35.31,25.78Z"/><path class="cls-33" d="M33.15,22.3a3.45,3.45,0,0,0-.23,1.36c.06.68,0,.81,0,1.11a.73.73,0,0,0,.15.44,1.19,1.19,0,0,0,1.22.06,1.84,1.84,0,0,0,1.15-2.1A1.48,1.48,0,0,0,33.15,22.3Z"/><path class="cls-34" d="M35.41,24.13a12.35,12.35,0,0,0-1-1.78,2.18,2.18,0,0,0-.49-.33,1.59,1.59,0,0,0-.79.29,4,4,0,0,0-.15.47c.17.19.51.4.56.56a2,2,0,0,1-.06,1.2c-.11.25.34.62.25.84a.06.06,0,0,0,0,0,2,2,0,0,0,.55-.12A2,2,0,0,0,35.41,24.13Z"/><path class="cls-40" d="M32.38,21.55c-.23-.14.45,1.08,1.07,1.38.37.18.34.78.32.89a2.7,2.7,0,0,0-.08.68c.09.12.38-.26.52-.24.35.07.21.39-.11.74s.55.51,1,.21c.22-.16.3-.26.59-.83.42-.83.53-2.07-.55-2.37S33,21.93,32.38,21.55Z"/><path class="cls-41" d="M35.07,25.22c.22-.16.3-.26.59-.83.42-.83.56-1.83-.42-2.37s-1.72,0-2.85-.47a3.31,3.31,0,0,0,2,1.29c.52.1.57.31.55.87S35,25,34.09,25.27A.92.92,0,0,0,35.07,25.22Z"/><path class="cls-35" d="M33.74,25.95l-.65.41s1.95.66,2.51-.29a.55.55,0,0,0-.35-.66S35.19,26.18,33.74,25.95Z"/><path class="cls-42" d="M26.93,25.93s-.48-.55-.46-.73-.24-.27-.24,0a1.07,1.07,0,0,0,.12.44s-.64-.56-.52-.79-.53.41-.38.8.25.84,1.29,1A.8.8,0,0,0,26.93,25.93Z"/><path class="cls-35" d="M33.2,26.87s.41.93-.89,1.21-3.51.65-4.06.24-1.92-1.72-1.92-1.72.63-.19.6-.75L29,27.14S32.93,26.22,33.2,26.87Z"/><path class="cls-36" d="M33.2,26.87c-.27-.66-4.18.27-4.18.27l-2.09-1.3a.62.62,0,0,1-.06.31A16.4,16.4,0,0,0,29,27.67a28.67,28.67,0,0,0,4.21-.47A.89.89,0,0,0,33.2,26.87Z"/></g></g></svg>