<svg id="logo-forttiori-white" xmlns="http://www.w3.org/2000/svg" width="174.32" height="24" viewBox="0 0 174.32 24">
  <path id="XMLID_29_" d="M0,0V24H24V0ZM12.613,20V15.68L16.96,20ZM17.44,7.787H10.907v2.64h5.307v3.52H10.907V19.84h0L6.56,15.52V4H17.44Z" fill="#fff"/>
  <g id="XMLID_1_" transform="translate(36 4.027)">
    <path id="XMLID_28_" d="M593.9,62.72h4.347L593.9,58.4Z" transform="translate(-471.527 -46.853)" fill="#fff"/>
    <path id="XMLID_25_" d="M187.9,31.1a7.769,7.769,0,0,1-3.28-.693,7.864,7.864,0,0,1-2.507-1.813,8.539,8.539,0,0,1-1.627-2.56,8.161,8.161,0,0,1-.587-2.987,7.647,7.647,0,0,1,.587-2.987,7.788,7.788,0,0,1,1.68-2.533,8.262,8.262,0,0,1,2.56-1.76,8.024,8.024,0,0,1,3.227-.667,7.56,7.56,0,0,1,3.253.693,7.864,7.864,0,0,1,2.507,1.813,8.3,8.3,0,0,1,2.16,5.547,7.673,7.673,0,0,1-.613,2.987,8.489,8.489,0,0,1-1.653,2.533,7.721,7.721,0,0,1-2.533,1.76A7.194,7.194,0,0,1,187.9,31.1Zm-3.573-8a6.012,6.012,0,0,0,.213,1.547,4.467,4.467,0,0,0,.667,1.333,3.5,3.5,0,0,0,1.12.933,3.371,3.371,0,0,0,1.6.347,3.486,3.486,0,0,0,1.627-.373,3.257,3.257,0,0,0,1.12-.96,4.11,4.11,0,0,0,.64-1.333,5.713,5.713,0,0,0,0-3.093,4.029,4.029,0,0,0-.667-1.307,3.211,3.211,0,0,0-1.147-.907,3.866,3.866,0,0,0-3.2,0,3.5,3.5,0,0,0-1.12.933,4.467,4.467,0,0,0-.667,1.333A5.993,5.993,0,0,0,184.327,23.1Z" transform="translate(-167.927 -15.1)" fill="#fff"/>
    <path id="XMLID_22_" d="M244.4,31.187V15.4h7.253a4.73,4.73,0,0,1,2.133.48,6.016,6.016,0,0,1,1.68,1.253,5.933,5.933,0,0,1,1.093,1.76,5.35,5.35,0,0,1,.4,2,5.577,5.577,0,0,1-.613,2.56,5.336,5.336,0,0,1-1.653,1.947l3.333,5.813h-4.88l-2.773-4.853h-1.627v4.853H244.4Zm4.32-8.64h2.747a1,1,0,0,0,.747-.453,1.947,1.947,0,0,0,.347-1.253,1.769,1.769,0,0,0-.4-1.253,1.1,1.1,0,0,0-.8-.427h-2.613v3.387Z" transform="translate(-215.227 -15.32)" fill="#fff"/>
    <path id="XMLID_20_" d="M313.213,19.187H308.68v12h-4.32v-12H299.8V15.4h13.413Z" transform="translate(-255.853 -15.32)" fill="#fff"/>
    <path id="XMLID_18_" d="M367.913,19.187H363.38v12h-4.32v-12H354.5V15.4h13.413v3.787Z" transform="translate(-295.967 -15.32)" fill="#fff"/>
    <path id="XMLID_16_" d="M409.1,31.187V15.4h4.347V31.187Z" transform="translate(-336.007 -15.32)" fill="#fff"/>
    <path id="XMLID_13_" d="M437.673,31.1a7.561,7.561,0,0,1-3.253-.693,7.864,7.864,0,0,1-2.507-1.813,8.538,8.538,0,0,1-1.627-2.56,8.161,8.161,0,0,1-.587-2.987,7.221,7.221,0,0,1,.613-2.987,7.788,7.788,0,0,1,1.68-2.533,8.263,8.263,0,0,1,2.56-1.76,8.024,8.024,0,0,1,3.227-.667,7.561,7.561,0,0,1,3.253.693,7.864,7.864,0,0,1,2.507,1.813,8.3,8.3,0,0,1,2.16,5.547,7.221,7.221,0,0,1-.613,2.987,8.489,8.489,0,0,1-1.653,2.533,7.961,7.961,0,0,1-5.76,2.427Zm-3.573-8a6.012,6.012,0,0,0,.213,1.547,4.467,4.467,0,0,0,.667,1.333,3.5,3.5,0,0,0,1.12.933,3.371,3.371,0,0,0,1.6.347,3.486,3.486,0,0,0,1.627-.373,3.257,3.257,0,0,0,1.12-.96,4.111,4.111,0,0,0,.64-1.333,5.714,5.714,0,0,0,0-3.093,4.029,4.029,0,0,0-.667-1.307,3.211,3.211,0,0,0-1.147-.907,3.866,3.866,0,0,0-3.2,0,3.5,3.5,0,0,0-1.12.933,4.467,4.467,0,0,0-.667,1.333A7.436,7.436,0,0,0,434.1,23.1Z" transform="translate(-351.113 -15.1)" fill="#fff"/>
    <path id="XMLID_10_" d="M494.2,31.187V15.4h7.253a4.73,4.73,0,0,1,2.133.48,6.015,6.015,0,0,1,1.68,1.253,5.436,5.436,0,0,1,1.093,1.76,5.35,5.35,0,0,1,.4,2,5.557,5.557,0,0,1-.587,2.56A5.336,5.336,0,0,1,504.52,25.4l3.333,5.813h-4.88L500.2,26.36h-1.627v4.853H494.2Zm4.32-8.64h2.72a1,1,0,0,0,.747-.453,1.947,1.947,0,0,0,.347-1.253,1.769,1.769,0,0,0-.4-1.253,1.1,1.1,0,0,0-.8-.427H498.52v3.387Z" transform="translate(-398.413 -15.32)" fill="#fff"/>
    <path id="XMLID_9_" d="M145.827,19.187V15.4H135V26.867l4.347,4.32h0V25.32h5.28V21.8h-5.28V19.187Z" transform="translate(-135 -15.32)" fill="#fff"/>
    <path id="XMLID_8_" d="M549.6,15.4V31.187h4.32V19.747Z" transform="translate(-439.04 -15.32)" fill="#fff"/>
    <g id="XMLID_3_" transform="translate(129.547 8.427)">
      <path id="XMLID_6_" d="M622.587,54.167H620.8V46.7h1.787Z" transform="translate(-620.8 -46.7)" fill="#fff"/>
      <path id="XMLID_4_" d="M636.513,48.087h-2.24v6.08h-1.787v-6.08H630.3V46.7h6.24v1.387Z" transform="translate(-627.767 -46.7)" fill="#fff"/>
    </g>
  </g>
</svg>
