<svg id="logo-forttiori" xmlns="http://www.w3.org/2000/svg" width="217.9" height="30" viewBox="0 0 217.9 30">
  <path id="XMLID_29_" d="M0,0V30H30V0ZM15.767,25V19.6L21.2,25ZM21.8,9.733H13.633v3.3h6.633v4.4H13.633V24.8h0L8.2,19.4V5H21.8Z" fill="#2d75b7"/>
  <g id="XMLID_1_" transform="translate(45 5.033)">
    <path id="XMLID_28_" d="M593.9,63.8h5.433L593.9,58.4Z" transform="translate(-440.933 -43.967)" fill="#2d75b7"/>
    <path id="XMLID_25_" d="M189.9,35.1a9.711,9.711,0,0,1-4.1-.867,9.83,9.83,0,0,1-3.133-2.267,10.674,10.674,0,0,1-2.033-3.2,10.2,10.2,0,0,1-.733-3.733,9.559,9.559,0,0,1,.733-3.733,9.735,9.735,0,0,1,2.1-3.167,10.328,10.328,0,0,1,3.2-2.2,10.03,10.03,0,0,1,4.033-.833,9.45,9.45,0,0,1,4.067.867,9.83,9.83,0,0,1,3.133,2.267,10.369,10.369,0,0,1,2.7,6.933A9.591,9.591,0,0,1,199.1,28.9a10.611,10.611,0,0,1-2.067,3.167,9.651,9.651,0,0,1-3.167,2.2A8.993,8.993,0,0,1,189.9,35.1Zm-4.467-10a7.515,7.515,0,0,0,.267,1.933,5.583,5.583,0,0,0,.833,1.667,4.37,4.37,0,0,0,1.4,1.167,4.214,4.214,0,0,0,2,.433,4.358,4.358,0,0,0,2.033-.467,4.072,4.072,0,0,0,1.4-1.2,5.137,5.137,0,0,0,.8-1.667,7.142,7.142,0,0,0,0-3.867,5.036,5.036,0,0,0-.833-1.633,4.014,4.014,0,0,0-1.433-1.133,4.832,4.832,0,0,0-4,0,4.37,4.37,0,0,0-1.4,1.167,5.583,5.583,0,0,0-.833,1.667A7.491,7.491,0,0,0,185.433,25.1Z" transform="translate(-164.933 -15.1)"/>
    <path id="XMLID_22_" d="M244.4,35.133V15.4h9.067a5.912,5.912,0,0,1,2.667.6,7.52,7.52,0,0,1,2.1,1.567,7.417,7.417,0,0,1,1.367,2.2,6.687,6.687,0,0,1,.5,2.5,6.972,6.972,0,0,1-.767,3.2,6.67,6.67,0,0,1-2.067,2.433l4.167,7.267h-6.1L251.867,29.1h-2.033v6.067H244.4Zm5.4-10.8h3.433a1.25,1.25,0,0,0,.933-.567A2.434,2.434,0,0,0,254.6,22.2a2.211,2.211,0,0,0-.5-1.567,1.368,1.368,0,0,0-1-.533h-3.267v4.233Z" transform="translate(-207.933 -15.3)"/>
    <path id="XMLID_20_" d="M316.567,20.133H310.9v15h-5.4v-15h-5.7V15.4h16.767Z" transform="translate(-244.867 -15.3)"/>
    <path id="XMLID_18_" d="M371.267,20.133H365.6v15h-5.4v-15h-5.7V15.4h16.767v4.733Z" transform="translate(-281.333 -15.3)"/>
    <path id="XMLID_16_" d="M409.1,35.133V15.4h5.433V35.133Z" transform="translate(-317.733 -15.3)"/>
    <path id="XMLID_13_" d="M439.667,35.1a9.451,9.451,0,0,1-4.067-.867,9.83,9.83,0,0,1-3.133-2.267,10.674,10.674,0,0,1-2.033-3.2,10.2,10.2,0,0,1-.733-3.733,9.026,9.026,0,0,1,.767-3.733,9.734,9.734,0,0,1,2.1-3.167,10.328,10.328,0,0,1,3.2-2.2A10.03,10.03,0,0,1,439.8,15.1a9.451,9.451,0,0,1,4.067.867A9.83,9.83,0,0,1,447,18.233a10.369,10.369,0,0,1,2.7,6.933,9.026,9.026,0,0,1-.767,3.733,10.611,10.611,0,0,1-2.067,3.167,9.951,9.951,0,0,1-7.2,3.033Zm-4.467-10a7.516,7.516,0,0,0,.267,1.933A5.583,5.583,0,0,0,436.3,28.7a4.369,4.369,0,0,0,1.4,1.167,4.214,4.214,0,0,0,2,.433,4.358,4.358,0,0,0,2.033-.467,4.072,4.072,0,0,0,1.4-1.2,5.137,5.137,0,0,0,.8-1.667,7.142,7.142,0,0,0,0-3.867,5.035,5.035,0,0,0-.833-1.633,4.013,4.013,0,0,0-1.433-1.133,4.832,4.832,0,0,0-4,0,4.369,4.369,0,0,0-1.4,1.167,5.583,5.583,0,0,0-.833,1.667A9.3,9.3,0,0,0,435.2,25.1Z" transform="translate(-331.467 -15.1)"/>
    <path id="XMLID_10_" d="M494.2,35.133V15.4h9.067a5.912,5.912,0,0,1,2.667.6,7.52,7.52,0,0,1,2.1,1.567,6.8,6.8,0,0,1,1.367,2.2,6.688,6.688,0,0,1,.5,2.5,6.946,6.946,0,0,1-.733,3.2A6.67,6.67,0,0,1,507.1,27.9l4.167,7.267h-6.1L501.7,29.1h-2.033v6.067H494.2Zm5.4-10.8H503a1.25,1.25,0,0,0,.933-.567,2.434,2.434,0,0,0,.433-1.567,2.211,2.211,0,0,0-.5-1.567,1.368,1.368,0,0,0-1-.533H499.6Z" transform="translate(-374.467 -15.3)"/>
    <path id="XMLID_9_" d="M148.533,20.133V15.4H135V29.733l5.433,5.4h0V27.8h6.6V23.4h-6.6V20.133Z" transform="translate(-135 -15.3)"/>
    <path id="XMLID_8_" d="M549.6,15.4V35.133H555v-14.3Z" transform="translate(-411.4 -15.3)"/>
    <g id="XMLID_3_" transform="translate(161.933 10.533)">
      <path id="XMLID_6_" d="M623.033,56.033H620.8V46.7h2.233Z" transform="translate(-620.8 -46.7)"/>
      <path id="XMLID_4_" d="M638.067,48.433h-2.8v7.6h-2.233v-7.6H630.3V46.7h7.8v1.733Z" transform="translate(-627.133 -46.7)"/>
    </g>
  </g>
</svg>
