<svg width="91" height="90" viewBox="0 0 91 90" fill="none" xmlns="http://www.w3.org/2000/svg">
<g clip-path="url(#clip0)">
<path d="M87.1219 78.741C86.5919 76.9424 85.5708 75.3272 84.1735 74.0769C82.7761 72.8267 81.0578 71.9908 79.2116 71.6633L69.6902 69.8532V69.0929C71.4833 68.0567 73.0331 66.6479 74.2354 64.9617C75.4376 63.2755 76.2641 61.351 76.6593 59.3182C77.9673 59.0477 79.1422 58.3349 79.9862 57.2997C80.8302 56.2644 81.2918 54.97 81.2932 53.6344V39.3705C81.3022 37.4083 80.6733 35.4964 79.5012 33.9227C78.3291 32.3491 76.6774 31.1989 74.7948 30.6456L74.0708 29.9216C71.5709 27.4139 68.3823 25.7056 64.9098 25.0135C61.4372 24.3215 57.8373 24.6769 54.5671 26.0346C51.2969 27.3923 48.5039 29.6912 46.5427 32.6392C44.5815 35.5873 43.5405 39.0517 43.5519 42.5925V53.743C43.5533 55.0786 44.0149 56.373 44.8589 57.4083C45.7029 58.4435 46.8778 59.1563 48.1858 59.4268C48.583 61.4612 49.4124 63.3867 50.6178 65.073C51.8232 66.7593 53.3766 68.1672 55.1729 69.2015V69.9618L45.6335 71.7719C43.7873 72.0994 42.069 72.9353 40.6716 74.1855C39.2743 75.4358 38.2532 77.051 37.7232 78.8496L34.3926 90H90.5068L87.1219 78.741ZM76.9489 56.2229V51.2269C77.277 51.4146 77.5648 51.6652 77.796 51.9642C78.0273 52.2633 78.1973 52.6049 78.2965 52.9697C78.3957 53.3344 78.422 53.7151 78.374 54.0901C78.3261 54.465 78.2047 54.8268 78.0169 55.1549C77.757 55.5955 77.3895 55.963 76.9489 56.2229ZM47.9867 56.2229C47.6571 56.0366 47.3675 55.7872 47.1345 55.4888C46.9015 55.1905 46.7296 54.8491 46.6287 54.4842C46.5278 54.1193 46.4999 53.7381 46.5466 53.3624C46.5932 52.9868 46.7135 52.624 46.9006 52.2949C47.1572 51.8455 47.5331 51.4759 47.9867 51.2269V56.2229ZM47.9867 46.4662V48.1134C47.4825 48.2559 46.9966 48.4563 46.5386 48.7108V42.5563C46.5406 39.5959 47.4203 36.7026 49.0664 34.2421C50.7126 31.7816 53.0514 29.8645 55.787 28.733C58.5226 27.6016 61.5323 27.3066 64.4356 27.8855C67.3388 28.4644 70.0052 29.891 72.0977 31.9851L73.3648 33.2522L73.7631 33.3608C75.1093 33.6933 76.3049 34.4681 77.1583 35.5611C78.0117 36.6541 78.4734 38.0019 78.4694 39.3886V48.7289C78.0188 48.4594 77.5308 48.2581 77.0213 48.1315V46.4662H72.4055C70.4536 46.4593 68.5298 46.0015 66.784 45.1286C65.0383 44.2557 63.5178 42.9913 62.3411 41.434L61.1283 39.823L58.2502 42.7192C55.8769 45.0446 52.6851 46.3447 49.3624 46.3395L47.9867 46.4662ZM50.8829 56.6211V49.29C54.4687 48.9627 57.8256 47.3867 60.368 44.8371L60.9292 44.276C62.3828 45.8757 64.1544 47.1544 66.1305 48.0303C68.1067 48.9062 70.2439 49.3599 72.4055 49.3624H74.107V56.603C74.1687 58.1665 73.9141 59.7263 73.3584 61.189C72.8026 62.6517 71.9572 63.9871 70.8729 65.1151C69.7885 66.2432 68.4875 67.1406 67.0479 67.7536C65.6082 68.3666 64.0597 68.6826 62.495 68.6826C60.9303 68.6826 59.3817 68.3666 57.942 67.7536C56.5024 67.1406 55.2014 66.2432 54.1171 65.1151C53.0327 63.9871 52.1873 62.6517 51.6316 61.189C51.0758 59.7263 50.8212 58.1665 50.8829 56.603V56.6211ZM58.1778 70.5953C60.9375 71.4464 63.8895 71.4464 66.6492 70.5953L62.4135 73.6726L58.1778 70.5953ZM60.2051 75.7361L57.2365 78.7047L55.3178 72.9304L56.2409 72.7675L60.2051 75.7361ZM68.5861 72.7675L69.5092 72.9304L67.5905 78.7047L64.6219 75.6456L68.5861 72.7675ZM38.2301 87.2486L40.4927 79.646C40.8773 78.3624 41.6105 77.2107 42.6108 76.319C43.6111 75.4274 44.8392 74.8308 46.1585 74.5957L52.4939 73.3648L56.1142 83.9903L62.5583 77.5463L68.7852 83.9903L72.4055 73.3648L78.7047 74.5052C80.0283 74.7538 81.2564 75.3666 82.2509 76.2747C83.2453 77.1829 83.9668 78.3504 84.3343 79.646L86.5969 87.1762L38.2301 87.2486Z" fill="url(#paint0_linear)"/>
<path d="M37.7414 23.5318V14.2639L33.7953 13.214L33.4332 12.3089L35.4787 8.77916L28.9622 2.28077L25.4324 4.32623C25.1374 4.18421 24.8353 4.05734 24.5274 3.9461L23.5318 0H14.282L13.214 3.9461C12.906 4.05734 12.604 4.18421 12.3089 4.32623L8.77916 2.28077L2.28077 8.77916L4.32623 12.3994C4.18142 12.7072 4.05471 13.0149 3.9461 13.3045L0 14.2639V23.5318L3.9461 24.5817C4.05734 24.8896 4.18421 25.1917 4.32623 25.4867L2.28077 28.9622L8.77916 35.4606L12.3994 33.4151C12.6945 33.5571 12.9965 33.684 13.3045 33.7953L14.3544 37.7414H23.5318L24.5817 33.7953C24.8909 33.6873 25.1931 33.5603 25.4867 33.4151L29.107 35.4787L35.4606 28.9622L33.4151 25.4324C33.5571 25.1374 33.684 24.8353 33.7953 24.5274L37.7414 23.5318ZM31.8403 28.5459L28.4916 31.8946L25.541 30.175L24.8351 30.537C24.2033 30.8591 23.5501 31.1373 22.8801 31.3697L22.1199 31.605L21.251 34.8994H16.5084L15.6215 31.605L14.8793 31.3697C14.2082 31.1404 13.5548 30.8621 12.9244 30.537L12.2184 30.175L9.2498 31.8946L5.90105 28.4916L7.71118 25.541L7.24055 24.8351C6.9168 24.2064 6.6444 23.5527 6.42599 22.8801L6.17257 22.1199L2.89622 21.251V16.5084L6.19067 15.6215L6.42599 14.8793C6.64104 14.1997 6.91354 13.5397 7.24055 12.9063L7.60257 12.2003L5.90105 9.2498L9.2498 5.90105L12.2184 7.71118L12.9244 7.24055C13.5515 6.91361 14.2056 6.64109 14.8793 6.42599L15.6215 6.17257L16.5084 2.89622H21.2329L22.1199 6.19067L22.8801 6.44409C23.5521 6.65665 24.2059 6.923 24.8351 7.24055L25.541 7.60257L28.4916 5.79244L31.8403 9.14119L30.1388 12.1098L30.5008 12.8158C30.8309 13.4414 31.1035 14.0958 31.3154 14.7707L31.5507 15.5129L34.8451 16.3998V21.1424L31.5507 22.0113L31.3154 22.7715C31.083 23.4415 30.8048 24.0947 30.4827 24.7265L30.1207 25.4324L31.8403 28.5459Z" fill="url(#paint1_linear)"/>
<path d="M27.0253 24.9437C28.5548 22.8816 29.2447 20.3159 28.9559 17.7648C28.6671 15.2137 27.421 12.8673 25.4693 11.1992C23.5176 9.53122 21.0056 8.66591 18.4407 8.77805C15.8758 8.8902 13.4489 9.97143 11.6502 11.8034C9.85156 13.6354 8.81503 16.0817 8.74996 18.6483C8.6849 21.2148 9.59615 23.7105 11.2997 25.6312C13.0032 27.552 15.3722 28.7548 17.9281 28.9968C20.4841 29.2388 23.0367 28.5018 25.0704 26.9348L23.2603 24.636C21.7843 25.7876 19.9261 26.3358 18.0614 26.1696C16.1967 26.0034 14.4646 25.1353 13.2156 23.7408C11.9666 22.3463 11.2938 20.5294 11.3332 18.6577C11.3727 16.7861 12.1215 14.9992 13.4282 13.6586C14.7349 12.3179 16.502 11.5236 18.372 11.4361C20.2421 11.3487 22.0756 11.9747 23.5016 13.1876C24.9277 14.4004 25.84 16.1096 26.0539 17.9695C26.2679 19.8293 25.7675 21.701 24.6541 23.206L27.0253 24.9437Z" fill="url(#paint2_linear)"/>
<path d="M87.5201 17.8479L85.71 19.6581V14.4811C85.71 10.6405 84.1843 6.95715 81.4686 4.24141C78.7529 1.52568 75.0695 0 71.2289 0L62.4316 0V2.89622H71.1384C74.2096 2.90574 77.1526 4.12877 79.326 6.29878C81.4994 8.46879 82.7271 11.4099 82.7414 14.4811V19.7305L80.9312 17.9204L78.8134 19.9115L84.2438 25.3419L89.6742 19.9115L87.5201 17.8479Z" fill="url(#paint3_linear)"/>
<path d="M7.24058 75.4827V70.2876L9.05072 72.0977L11.0962 70.0523L5.66576 64.6219L0.235352 70.0523L2.29891 72.0977L4.10904 70.2876V75.4827C4.10904 79.3233 5.63473 83.0066 8.35046 85.7224C11.0662 88.4381 14.7495 89.9638 18.5901 89.9638V87.0676C15.5601 87.0014 12.6762 85.7522 10.5553 83.5873C8.43429 81.4223 7.24459 78.5135 7.24058 75.4827Z" fill="url(#paint4_linear)"/>
<path d="M37.7414 43.5519H0V46.4481H37.7414V43.5519Z" fill="url(#paint5_linear)"/>
<path d="M37.7414 55.173H0V58.0692H37.7414V55.173Z" fill="url(#paint6_linear)"/>
<path d="M17.4135 49.3624H0V52.2586H17.4135V49.3624Z" fill="url(#paint7_linear)"/>
<path d="M28.6726 49.3624H20.3278V52.2586H37.7413V49.3624H28.6726Z" fill="url(#paint8_linear)"/>
<path d="M59.5173 0H56.6211V2.89622H59.5173V0Z" fill="url(#paint9_linear)"/>
<path d="M53.7068 0H50.8105V2.89622H53.7068V0Z" fill="url(#paint10_linear)"/>
<path d="M24.6722 87.1038H21.7759V90H24.6722V87.1038Z" fill="url(#paint11_linear)"/>
<path d="M30.4827 87.1038H27.5865V90H30.4827V87.1038Z" fill="url(#paint12_linear)"/>
</g>
<defs>
<linearGradient id="paint0_linear" x1="34.3383" y1="57.3451" x2="90.5068" y2="57.3451" gradientUnits="userSpaceOnUse">
<stop stop-color="#67ADEF"/>
<stop offset="1" stop-color="#3465E8"/>
</linearGradient>
<linearGradient id="paint1_linear" x1="0" y1="393.642" x2="786.907" y2="393.642" gradientUnits="userSpaceOnUse">
<stop stop-color="#67ADEF"/>
<stop offset="1" stop-color="#3465E8"/>
</linearGradient>
<linearGradient id="paint2_linear" x1="106.465" y1="220.019" x2="333.935" y2="220.019" gradientUnits="userSpaceOnUse">
<stop stop-color="#67ADEF"/>
<stop offset="1" stop-color="#3465E8"/>
</linearGradient>
<linearGradient id="paint3_linear" x1="1002.03" y1="177.14" x2="1410.67" y2="177.14" gradientUnits="userSpaceOnUse">
<stop stop-color="#67ADEF"/>
<stop offset="1" stop-color="#3465E8"/>
</linearGradient>
<linearGradient id="paint4_linear" x1="4.45695" y1="1147.73" x2="191.676" y2="1147.73" gradientUnits="userSpaceOnUse">
<stop stop-color="#67ADEF"/>
<stop offset="1" stop-color="#3465E8"/>
</linearGradient>
<linearGradient id="paint5_linear" x1="0" y1="115.552" x2="786.907" y2="115.552" gradientUnits="userSpaceOnUse">
<stop stop-color="#67ADEF"/>
<stop offset="1" stop-color="#3465E8"/>
</linearGradient>
<linearGradient id="paint6_linear" x1="0" y1="145.767" x2="786.907" y2="145.767" gradientUnits="userSpaceOnUse">
<stop stop-color="#67ADEF"/>
<stop offset="1" stop-color="#3465E8"/>
</linearGradient>
<linearGradient id="paint7_linear" x1="0" y1="130.659" x2="167.518" y2="130.659" gradientUnits="userSpaceOnUse">
<stop stop-color="#67ADEF"/>
<stop offset="1" stop-color="#3465E8"/>
</linearGradient>
<linearGradient id="paint8_linear" x1="215.882" y1="130.659" x2="383.4" y2="130.659" gradientUnits="userSpaceOnUse">
<stop stop-color="#67ADEF"/>
<stop offset="1" stop-color="#3465E8"/>
</linearGradient>
<linearGradient id="paint9_linear" x1="147.215" y1="2.31698" x2="151.849" y2="2.31698" gradientUnits="userSpaceOnUse">
<stop stop-color="#67ADEF"/>
<stop offset="1" stop-color="#3465E8"/>
</linearGradient>
<linearGradient id="paint10_linear" x1="132.107" y1="2.31698" x2="136.741" y2="2.31698" gradientUnits="userSpaceOnUse">
<stop stop-color="#67ADEF"/>
<stop offset="1" stop-color="#3465E8"/>
</linearGradient>
<linearGradient id="paint11_linear" x1="56.6175" y1="228.787" x2="61.2514" y2="228.787" gradientUnits="userSpaceOnUse">
<stop stop-color="#67ADEF"/>
<stop offset="1" stop-color="#3465E8"/>
</linearGradient>
<linearGradient id="paint12_linear" x1="71.7249" y1="228.787" x2="76.3588" y2="228.787" gradientUnits="userSpaceOnUse">
<stop stop-color="#67ADEF"/>
<stop offset="1" stop-color="#3465E8"/>
</linearGradient>
<clipPath id="clip0">
<rect width="90.5068" height="90" fill="white"/>
</clipPath>
</defs>
</svg>
