<svg width="70" height="70" viewBox="0 0 70 70" fill="none" xmlns="http://www.w3.org/2000/svg">
<path d="M67.7419 29.3548C68.9873 29.3548 70 28.3421 70 27.0968V15.8065C70 14.5611 68.9873 13.5484 67.7419 13.5484H41.3824C38.1556 5.41597 30.2569 0 21.4516 0C9.62274 0 0 9.62274 0 21.4516C0 31.4356 6.86677 39.8244 16.1181 42.2044C15.9182 42.7881 15.8065 43.4023 15.8065 44.0323V66.6129C15.8065 68.4803 17.3261 70 19.1935 70H23.7097C25.5771 70 27.0968 68.4803 27.0968 66.6129V44.0323C27.0968 43.4056 26.9873 42.7948 26.7885 42.2134C29.3244 41.5619 31.7224 40.4532 33.871 38.9245V47.4194C33.871 48.6647 34.8837 49.6774 36.129 49.6774H67.7419C68.9873 49.6774 70 48.6647 70 47.4194V36.129C70 34.8837 68.9873 33.871 67.7419 33.871H38.9302C39.9282 32.471 40.7389 30.9569 41.3734 29.3548H67.7419ZM27.0968 29.3548H33.8123C31.1376 33.5187 26.4679 36.129 21.4516 36.129C13.3587 36.129 6.77419 29.5445 6.77419 21.4516C6.77419 13.3587 13.3587 6.77419 21.4516 6.77419C26.4679 6.77419 31.1376 9.38452 33.8123 13.5484H27.0968C25.8515 13.5484 24.8387 14.5611 24.8387 15.8065V27.0968C24.8387 28.3421 25.8515 29.3548 27.0968 29.3548ZM27.0968 27.0968V15.8065H40.6452V27.0968H27.0968ZM67.7431 27.0968H42.9032V15.8065H67.7419L67.7431 27.0968ZM23.7097 67.7419H19.1935C18.5715 67.7419 18.0645 67.235 18.0645 66.6129V49.6774H24.8387V66.6129C24.8387 67.235 24.3318 67.7419 23.7097 67.7419ZM24.8387 44.0323V47.4194H18.0645V44.0323C18.0645 43.5513 18.1718 43.0861 18.3637 42.6548C19.3753 42.8016 20.4005 42.9032 21.4516 42.9032C22.4937 42.9032 23.5223 42.8061 24.5406 42.6582C24.7326 43.0884 24.8387 43.5524 24.8387 44.0323ZM36.129 36.129H51.9355V47.4194H36.129V36.129ZM67.7419 47.4194H54.1936V36.129H67.7419V47.4194ZM36.0579 33.8777C34.8702 33.9161 33.9161 34.8702 33.8789 36.059C30.4105 39.0115 26.0219 40.6452 21.4516 40.6452C10.8681 40.6452 2.25806 32.0352 2.25806 21.4516C2.25806 10.8681 10.8681 2.25806 21.4516 2.25806C29.0285 2.25806 35.8637 6.73468 38.9437 13.5484H36.4215C33.5052 8.0421 27.7132 4.51613 21.4516 4.51613C12.1134 4.51613 4.51613 12.1134 4.51613 21.4516C4.51613 30.7898 12.1134 38.3871 21.4516 38.3871C27.7132 38.3871 33.5052 34.8611 36.4215 29.3548H38.9369C38.1997 30.9885 37.231 32.5003 36.0579 33.8777Z" fill="url(#paint0_linear)"/>
<path d="M63.2258 20.3225H65.4839V22.5806H63.2258V20.3225Z" fill="url(#paint1_linear)"/>
<path d="M58.7097 20.3225H60.9677V22.5806H58.7097V20.3225Z" fill="url(#paint2_linear)"/>
<path d="M54.1935 20.3225H56.4516V22.5806H54.1935V20.3225Z" fill="url(#paint3_linear)"/>
<path d="M49.6774 20.3225H51.9355V22.5806H49.6774V20.3225Z" fill="url(#paint4_linear)"/>
<path d="M45.1613 20.3225H47.4194V22.5806H45.1613V20.3225Z" fill="url(#paint5_linear)"/>
<path d="M37.5889 17.2664L31.6129 23.2423L30.1531 21.7825L28.5566 23.3789L31.6129 26.4352L39.1854 18.8628L37.5889 17.2664Z" fill="url(#paint6_linear)"/>
<path d="M63.2258 54.1936H31.6129C30.3676 54.1936 29.3549 55.2063 29.3549 56.4517V67.742C29.3549 68.9873 30.3676 70.0001 31.6129 70.0001H63.2258C64.4711 70.0001 65.4839 68.9873 65.4839 67.742V56.4517C65.4839 55.2063 64.4711 54.1936 63.2258 54.1936ZM31.6129 56.4517H45.1613V67.742H31.6129V56.4517ZM47.4194 67.742V56.4517H63.2258L63.227 67.742H47.4194Z" fill="url(#paint7_linear)"/>
<path d="M58.7097 60.9678H60.9677V63.2258H58.7097V60.9678Z" fill="url(#paint8_linear)"/>
<path d="M54.1935 60.9678H56.4516V63.2258H54.1935V60.9678Z" fill="url(#paint9_linear)"/>
<path d="M49.6774 60.9678H51.9355V63.2258H49.6774V60.9678Z" fill="url(#paint10_linear)"/>
<path d="M38.3871 40.6453H40.6451V42.9033H38.3871V40.6453Z" fill="url(#paint11_linear)"/>
<path d="M42.9032 40.6453H45.1613V42.9033H42.9032V40.6453Z" fill="url(#paint12_linear)"/>
<path d="M47.4194 40.6453H49.6774V42.9033H47.4194V40.6453Z" fill="url(#paint13_linear)"/>
<path d="M42.105 57.9116L36.129 63.8876L34.6692 62.4277L33.0728 64.0242L36.129 67.0805L43.7015 59.5081L42.105 57.9116Z" fill="url(#paint14_linear)"/>
<path d="M56.7824 44.3631L58.3789 45.9595L60.9677 43.3706L63.5566 45.9595L65.1531 44.3631L62.5642 41.7742L65.1531 39.1853L63.5566 37.5889L60.9677 40.1777L58.3789 37.5889L56.7824 39.1853L59.3713 41.7742L56.7824 44.3631Z" fill="url(#paint15_linear)"/>
<defs>
<linearGradient id="paint0_linear" x1="35" y1="0" x2="35" y2="70" gradientUnits="userSpaceOnUse">
<stop stop-color="#67ADEF"/>
<stop offset="1" stop-color="#3465E8"/>
</linearGradient>
<linearGradient id="paint1_linear" x1="64.3549" y1="20.3225" x2="64.3549" y2="22.5806" gradientUnits="userSpaceOnUse">
<stop stop-color="#67ADEF"/>
<stop offset="1" stop-color="#3465E8"/>
</linearGradient>
<linearGradient id="paint2_linear" x1="59.8387" y1="20.3225" x2="59.8387" y2="22.5806" gradientUnits="userSpaceOnUse">
<stop stop-color="#67ADEF"/>
<stop offset="1" stop-color="#3465E8"/>
</linearGradient>
<linearGradient id="paint3_linear" x1="55.3226" y1="20.3225" x2="55.3226" y2="22.5806" gradientUnits="userSpaceOnUse">
<stop stop-color="#67ADEF"/>
<stop offset="1" stop-color="#3465E8"/>
</linearGradient>
<linearGradient id="paint4_linear" x1="50.8065" y1="20.3225" x2="50.8065" y2="22.5806" gradientUnits="userSpaceOnUse">
<stop stop-color="#67ADEF"/>
<stop offset="1" stop-color="#3465E8"/>
</linearGradient>
<linearGradient id="paint5_linear" x1="46.2903" y1="20.3225" x2="46.2903" y2="22.5806" gradientUnits="userSpaceOnUse">
<stop stop-color="#67ADEF"/>
<stop offset="1" stop-color="#3465E8"/>
</linearGradient>
<linearGradient id="paint6_linear" x1="33.871" y1="17.2664" x2="33.871" y2="26.4352" gradientUnits="userSpaceOnUse">
<stop stop-color="#67ADEF"/>
<stop offset="1" stop-color="#3465E8"/>
</linearGradient>
<linearGradient id="paint7_linear" x1="47.4194" y1="54.1936" x2="47.4194" y2="70.0001" gradientUnits="userSpaceOnUse">
<stop stop-color="#67ADEF"/>
<stop offset="1" stop-color="#3465E8"/>
</linearGradient>
<linearGradient id="paint8_linear" x1="59.8387" y1="60.9678" x2="59.8387" y2="63.2258" gradientUnits="userSpaceOnUse">
<stop stop-color="#67ADEF"/>
<stop offset="1" stop-color="#3465E8"/>
</linearGradient>
<linearGradient id="paint9_linear" x1="55.3226" y1="60.9678" x2="55.3226" y2="63.2258" gradientUnits="userSpaceOnUse">
<stop stop-color="#67ADEF"/>
<stop offset="1" stop-color="#3465E8"/>
</linearGradient>
<linearGradient id="paint10_linear" x1="50.8065" y1="60.9678" x2="50.8065" y2="63.2258" gradientUnits="userSpaceOnUse">
<stop stop-color="#67ADEF"/>
<stop offset="1" stop-color="#3465E8"/>
</linearGradient>
<linearGradient id="paint11_linear" x1="39.5161" y1="40.6453" x2="39.5161" y2="42.9033" gradientUnits="userSpaceOnUse">
<stop stop-color="#67ADEF"/>
<stop offset="1" stop-color="#3465E8"/>
</linearGradient>
<linearGradient id="paint12_linear" x1="44.0322" y1="40.6453" x2="44.0322" y2="42.9033" gradientUnits="userSpaceOnUse">
<stop stop-color="#67ADEF"/>
<stop offset="1" stop-color="#3465E8"/>
</linearGradient>
<linearGradient id="paint13_linear" x1="48.5484" y1="40.6453" x2="48.5484" y2="42.9033" gradientUnits="userSpaceOnUse">
<stop stop-color="#67ADEF"/>
<stop offset="1" stop-color="#3465E8"/>
</linearGradient>
<linearGradient id="paint14_linear" x1="38.3871" y1="57.9116" x2="38.3871" y2="67.0805" gradientUnits="userSpaceOnUse">
<stop stop-color="#67ADEF"/>
<stop offset="1" stop-color="#3465E8"/>
</linearGradient>
<linearGradient id="paint15_linear" x1="60.9677" y1="37.5889" x2="60.9677" y2="45.9595" gradientUnits="userSpaceOnUse">
<stop stop-color="#67ADEF"/>
<stop offset="1" stop-color="#3465E8"/>
</linearGradient>
</defs>
</svg>
