<svg width="90" height="90" viewBox="0 0 90 90" fill="none" xmlns="http://www.w3.org/2000/svg">
<path d="M46.512 75.006H43.506V78.012H46.512V75.006Z" fill="url(#paint0_linear)"/>
<path d="M88.506 77.994H86.994V23.994C86.994 22.4043 86.3625 20.8797 85.2384 19.7556C84.1143 18.6315 82.5897 18 81 18H72V5.994C72 4.40429 71.3685 2.87969 70.2444 1.7556C69.1203 0.631509 67.5957 0 66.006 0L23.994 0C22.4043 0 20.8797 0.631509 19.7556 1.7556C18.6315 2.87969 18 4.40429 18 5.994V18H9C7.41029 18 5.88569 18.6315 4.7616 19.7556C3.63751 20.8797 3.006 22.4043 3.006 23.994V77.994H1.494C1.09612 77.9987 0.716145 78.1601 0.436472 78.4432C0.156798 78.7262 -2.81936e-05 79.1081 3.80177e-09 79.506H3.80177e-09V84.006C3.80177e-09 85.5957 0.631509 87.1203 1.7556 88.2444C2.87969 89.3685 4.40429 90 5.994 90H84.006C85.5957 90 87.1203 89.3685 88.2444 88.2444C89.3685 87.1203 90 85.5957 90 84.006V79.506C90 79.1081 89.8432 78.7262 89.5635 78.4432C89.2839 78.1601 88.9039 77.9987 88.506 77.994ZM21.006 5.994C21.006 5.20153 21.3208 4.44152 21.8812 3.88117C22.4415 3.32081 23.2015 3.006 23.994 3.006H66.006C66.7985 3.006 67.5585 3.32081 68.1188 3.88117C68.6792 4.44152 68.994 5.20153 68.994 5.994V12.006H21.006V5.994ZM21.006 14.994H68.994V58.5C68.9964 58.8939 68.9208 59.2844 68.7717 59.649C68.6226 60.0136 68.4029 60.3451 68.1252 60.6245C67.8475 60.9039 67.5173 61.1256 67.1536 61.2768C66.7899 61.4281 66.3999 61.506 66.006 61.506H23.994C23.6001 61.506 23.2101 61.4281 22.8464 61.2768C22.4827 61.1256 22.1525 60.9039 21.8748 60.6245C21.5971 60.3451 21.3774 60.0136 21.2283 59.649C21.0792 59.2844 21.0036 58.8939 21.006 58.5V14.994ZM23.994 64.494H66.006C67.5957 64.494 69.1203 63.8625 70.2444 62.7384C71.3685 61.6143 72 60.0897 72 58.5V27H77.994V68.994H12.006V27H18V58.5C18 60.0897 18.6315 61.6143 19.7556 62.7384C20.8797 63.8625 22.4043 64.494 23.994 64.494ZM5.994 23.994C5.99399 23.6001 6.07187 23.2101 6.22316 22.8464C6.37444 22.4827 6.59615 22.1525 6.87552 21.8748C7.15489 21.5971 7.48641 21.3774 7.85101 21.2283C8.21561 21.0792 8.6061 21.0036 9 21.006H18V23.994H10.494C10.0961 23.9987 9.71614 24.1601 9.43647 24.4432C9.1568 24.7262 8.99997 25.1081 9 25.506V70.506C9 70.9022 9.1574 71.2822 9.43758 71.5624C9.71776 71.8426 10.0978 72 10.494 72H79.506C79.9022 72 80.2822 71.8426 80.5624 71.5624C80.8426 71.2822 81 70.9022 81 70.506V25.506C81 25.1081 80.8432 24.7262 80.5635 24.4432C80.2839 24.1601 79.9039 23.9987 79.506 23.994H72V21.006H81C81.3939 21.0036 81.7844 21.0792 82.149 21.2283C82.5136 21.3774 82.8451 21.5971 83.1245 21.8748C83.4038 22.1525 83.6256 22.4827 83.7768 22.8464C83.9281 23.2101 84.006 23.6001 84.006 23.994V77.994H58.5C58.302 77.9949 58.1061 78.0351 57.9238 78.1124C57.7415 78.1896 57.5764 78.3024 57.438 78.444L54.882 81H35.082L32.526 78.444C32.3876 78.3024 32.2225 78.1896 32.0402 78.1124C31.8579 78.0351 31.662 77.9949 31.464 77.994H5.994V23.994ZM86.994 84.006C86.994 84.7985 86.6792 85.5585 86.1188 86.1188C85.5585 86.6792 84.7985 86.994 84.006 86.994H5.994C5.20153 86.994 4.44152 86.6792 3.88117 86.1188C3.32081 85.5585 3.006 84.7985 3.006 84.006V81H30.888L33.444 83.556C33.5817 83.6984 33.7468 83.8117 33.9292 83.889C34.1117 83.9663 34.3078 84.0061 34.506 84.006H55.494C55.6922 84.0061 55.8883 83.9663 56.0708 83.889C56.2532 83.8117 56.4183 83.6984 56.556 83.556L59.13 81H86.994V84.006Z" fill="url(#paint1_linear)"/>
<path d="M64.512 48.006H25.506V51.012H64.512V48.006Z" fill="url(#paint2_linear)"/>
<path d="M61.506 54H25.506V57.006H61.506V54Z" fill="url(#paint3_linear)"/>
<path d="M64.512 41.994H34.506V45H64.512V41.994Z" fill="url(#paint4_linear)"/>
<path d="M27 5.99402H23.994V9.00002H27V5.99402Z" fill="url(#paint5_linear)"/>
<path d="M33.012 5.99402H30.006V9.00002H33.012V5.99402Z" fill="url(#paint6_linear)"/>
<path d="M39.006 5.99402H36V9.00002H39.006V5.99402Z" fill="url(#paint7_linear)"/>
<path d="M31.5 41.994H28.494V45H31.5V41.994Z" fill="url(#paint8_linear)"/>
<path d="M39.906 25.2L38.106 22.806L32.094 27.306C31.7797 27.5452 31.573 27.8992 31.519 28.2905C31.4651 28.6818 31.5682 29.0786 31.806 29.394C31.8827 29.5125 31.9803 29.6162 32.094 29.7L38.106 34.2L39.906 31.806L35.496 28.494L39.906 25.2Z" fill="url(#paint9_linear)"/>
<path d="M58.194 27.594C58.1168 27.4808 58.0191 27.3832 57.906 27.306L51.894 22.806L50.094 25.2L54.504 28.494L50.094 31.806L51.894 34.2L57.906 29.7C58.2214 29.4575 58.4286 29.1004 58.4825 28.7061C58.5364 28.3119 58.4328 27.9123 58.194 27.594Z" fill="url(#paint10_linear)"/>
<path d="M46.6069 20.4369L40.6015 35.4439L43.3923 36.5607L49.3978 21.5537L46.6069 20.4369Z" fill="url(#paint11_linear)"/>
<defs>
<linearGradient id="paint0_linear" x1="43.506" y1="76.5" x2="46.494" y2="76.5" gradientUnits="userSpaceOnUse">
<stop stop-color="#67ADEF"/>
<stop offset="1" stop-color="#3465E8"/>
</linearGradient>
<linearGradient id="paint1_linear" x1="0" y1="2250" x2="4500" y2="2250" gradientUnits="userSpaceOnUse">
<stop stop-color="#67ADEF"/>
<stop offset="1" stop-color="#3465E8"/>
</linearGradient>
<linearGradient id="paint2_linear" x1="578.221" y1="130.671" x2="1423.09" y2="130.671" gradientUnits="userSpaceOnUse">
<stop stop-color="#67ADEF"/>
<stop offset="1" stop-color="#3465E8"/>
</linearGradient>
<linearGradient id="paint3_linear" x1="535.626" y1="146.675" x2="1255.63" y2="146.675" gradientUnits="userSpaceOnUse">
<stop stop-color="#67ADEF"/>
<stop offset="1" stop-color="#3465E8"/>
</linearGradient>
<linearGradient id="paint4_linear" x1="609.721" y1="114.649" x2="1109.62" y2="114.649" gradientUnits="userSpaceOnUse">
<stop stop-color="#67ADEF"/>
<stop offset="1" stop-color="#3465E8"/>
</linearGradient>
<linearGradient id="paint5_linear" x1="64.0639" y1="18.529" x2="69.0839" y2="18.529" gradientUnits="userSpaceOnUse">
<stop stop-color="#67ADEF"/>
<stop offset="1" stop-color="#3465E8"/>
</linearGradient>
<linearGradient id="paint6_linear" x1="80.116" y1="18.529" x2="85.106" y2="18.529" gradientUnits="userSpaceOnUse">
<stop stop-color="#67ADEF"/>
<stop offset="1" stop-color="#3465E8"/>
</linearGradient>
<linearGradient id="paint7_linear" x1="96.1201" y1="18.529" x2="101.14" y2="18.529" gradientUnits="userSpaceOnUse">
<stop stop-color="#67ADEF"/>
<stop offset="1" stop-color="#3465E8"/>
</linearGradient>
<linearGradient id="paint8_linear" x1="76.079" y1="114.649" x2="81.099" y2="114.649" gradientUnits="userSpaceOnUse">
<stop stop-color="#67ADEF"/>
<stop offset="1" stop-color="#3465E8"/>
</linearGradient>
<linearGradient id="paint9_linear" x1="178.522" y1="203.173" x2="217.755" y2="203.173" gradientUnits="userSpaceOnUse">
<stop stop-color="#67ADEF"/>
<stop offset="1" stop-color="#3465E8"/>
</linearGradient>
<linearGradient id="paint10_linear" x1="283.935" y1="203.173" x2="323.174" y2="203.173" gradientUnits="userSpaceOnUse">
<stop stop-color="#67ADEF"/>
<stop offset="1" stop-color="#3465E8"/>
</linearGradient>
<linearGradient id="paint11_linear" x1="401.573" y1="74.5854" x2="480.454" y2="74.5854" gradientUnits="userSpaceOnUse">
<stop stop-color="#67ADEF"/>
<stop offset="1" stop-color="#3465E8"/>
</linearGradient>
</defs>
</svg>
