<svg width="40" height="40" viewBox="0 0 40 40" fill="none" xmlns="http://www.w3.org/2000/svg">
<circle cx="20" cy="20" r="20" fill="white"/>
<path d="M31 20.6489V28H26.7134V21.1412C26.7134 19.4182 26.0933 18.2424 24.5417 18.2424C23.3572 18.2424 22.6524 19.0348 22.3423 19.8014C22.2292 20.0754 22.2001 20.4569 22.2001 20.8405V28H17.912C17.912 28 17.9697 16.3835 17.912 15.1799H22.1997V16.9971C22.191 17.0107 22.1797 17.0254 22.1715 17.0385H22.1997V16.9971C22.7693 16.1248 23.7867 14.8787 26.0638 14.8787C28.885 14.8787 31 16.7111 31 20.6489ZM13.4265 9C11.9595 9 11 9.95661 11 11.2146C11 12.4451 11.9317 13.4308 13.3695 13.4308H13.3982C14.8935 13.4308 15.8235 12.4453 15.8235 11.2146C15.7953 9.95661 14.8935 9 13.4265 9ZM11.2547 28H15.5411V15.1799H11.2547V28Z" fill="#434343"/>
</svg>
