<svg width="40" height="40" viewBox="0 0 40 40" fill="none" xmlns="http://www.w3.org/2000/svg">
<path d="M19.9992 24.0039C22.2058 24.0039 24.0047 22.2082 24.0047 20C24.0047 19.1283 23.7195 18.3235 23.2474 17.6662C22.5199 16.6575 21.3373 15.9961 20.0016 15.9961C18.6651 15.9961 17.4833 16.6567 16.7542 17.6653C16.2805 18.3227 15.9977 19.1275 15.9969 19.9992C15.9945 22.2074 17.7918 24.0039 19.9992 24.0039Z" fill="white"/>
<path d="M28.7424 15.1019V11.2463L24.886 11.2584L24.8989 15.1148L28.7424 15.1019Z" fill="white"/>
<path d="M20 0C8.97205 0 0 8.97205 0 20C0 31.0271 8.97205 40 20 40C31.0271 40 40 31.0271 40 20C40 8.97205 31.0288 0 20 0ZM31.3744 26.979C31.3744 29.4047 29.4022 31.376 26.9782 31.376H13.0218C10.597 31.376 8.62563 29.4047 8.62563 26.979V13.0226C8.62563 10.5978 10.597 8.62644 13.0218 8.62644H26.9774C29.4022 8.62644 31.3744 10.5978 31.3744 13.0226V26.979Z" fill="white"/>
<path d="M26.2217 20C26.2217 23.4295 23.4311 26.2217 20 26.2217C16.5689 26.2217 13.7791 23.4295 13.7791 20C13.7791 19.1751 13.9434 18.3864 14.2367 17.6662H10.8411V26.979C10.8411 28.1825 11.8183 29.1573 13.021 29.1573H26.9766C28.1777 29.1573 29.1565 28.1825 29.1565 26.979V17.6662H25.7593C26.0549 18.3864 26.2217 19.1751 26.2217 20Z" fill="white"/>
</svg>
